<svg width="166" height="101" viewBox="0 0 166 101" fill="none" xmlns="http://www.w3.org/2000/svg">
<g clip-path="url(#clip0_113_87)">
<path d="M59.7442 52.5673C60.6331 52.1521 61.4341 51.1705 61.4536 49.3023C61.4879 46.372 59.5001 44.8824 56.4086 44.8433L48.1937 44.7334L45.1828 49.3072H35.0584V53.1802H41.8617C40.7311 54.4525 39.6468 55.671 38.5406 56.9189C40.5382 56.4671 41.8519 56.9066 42.692 58.2741C43.0475 58.861 43.2088 59.5452 43.1531 60.2291C43.0975 60.913 42.8276 61.5619 42.3818 62.0837C41.9366 62.6126 41.3352 62.987 40.6641 63.1533C39.9929 63.3195 39.2863 63.2691 38.6456 63.0092C38.0022 62.7522 37.4585 62.2949 37.0949 61.7051C36.8527 61.3139 36.6938 60.8769 36.6283 60.4214C36.5627 59.9658 36.5919 59.5017 36.714 59.058C36.6554 59.0874 36.6188 59.0922 36.6017 59.1142C35.5589 60.2839 34.5162 61.4511 33.4857 62.6282C33.4613 62.6797 33.4487 62.736 33.4487 62.793C33.4487 62.8501 33.4613 62.9064 33.4857 62.9579C34.1075 64.3525 35.1669 65.5065 36.5033 66.2449C37.8398 66.9835 39.3806 67.2663 40.8922 67.0506C42.4211 66.8518 43.8434 66.1596 44.943 65.0789C46.0427 63.9982 46.7597 62.5881 46.9849 61.0629C47.0094 60.887 47.0265 60.7112 47.0387 60.5354L56.3378 60.6502C60.4573 60.7015 61.6295 58.7284 61.6637 56.0592C61.6612 54.2229 60.848 53.0068 59.7442 52.5673ZM56.3988 56.1203L49.4953 56.0349L49.5124 54.5233L56.35 54.6063C57.0459 54.6063 57.3267 54.8505 57.3267 55.3511C57.295 55.9177 57.0092 56.1277 56.3988 56.1203ZM56.4622 50.8481L45.195 50.7114L45.1388 55.1728C44.4773 54.4619 43.677 53.8942 42.7872 53.5049C42.5039 53.3805 42.2134 53.2779 41.8886 53.1509C42.4307 52.5388 42.9752 51.9161 43.5222 51.2828C44.0904 50.6235 44.648 49.9682 45.195 49.317L56.5355 49.4562C56.8749 49.4562 57.3243 49.5368 57.3194 50.1033C57.2999 50.7651 56.8481 50.853 56.4525 50.8383L56.4622 50.8481Z" fill="#BBC4CD"/>
<path d="M77.7445 50.4859H63.0293V54.0756H77.7445V50.4859ZM63.0293 55.9439V59.7226H78.5422V55.9439H63.0293ZM78.3323 45.0278H63.0293V48.8065H78.3323V45.0278Z" fill="#BBC4CD"/>
<path d="M93.3115 59.7226H99.2941L92.4928 45.0278H85.9434L79.1631 59.7226H89.6169V55.9439H86.6362L89.2181 49.3733L93.3115 59.7226Z" fill="#BBC4CD"/>
<path d="M113.681 45.0278H96.7827V48.8275H102.346V59.7226H108.118V48.8275H113.681V45.0278Z" fill="#BBC4CD"/>
<path d="M124.152 50.4014C121.486 50.1285 120.416 50.0655 120.416 49.2678C120.416 48.659 121.066 48.2601 123.081 48.2601C125.013 48.2601 125.748 48.68 125.748 49.5197H131.584C131.584 46.7487 129.379 44.7334 123.123 44.7334C117.435 44.7334 114.706 46.2868 114.706 49.5197C114.706 52.5636 116.574 53.5502 121.151 54.138C125.79 54.7258 126.399 54.7258 126.399 55.5025C126.399 56.2163 125.58 56.4891 123.669 56.4891C121.298 56.4891 120.331 56.0903 120.331 54.9567H114.307C114.307 58.1475 116.7 60.0369 123.334 60.0369C129.106 60.0369 132.549 58.9453 132.549 55.0617C132.549 51.1571 129.148 50.9052 124.152 50.4014Z" fill="#BBC4CD"/>
</g>
<defs>
<clipPath id="clip0_113_87">
<rect width="99.1" height="23.0664" fill="white" transform="translate(33.4492 44.7334)"/>
</clipPath>
</defs>
</svg>
