<svg width="166" height="101" viewBox="0 0 166 101" fill="none" xmlns="http://www.w3.org/2000/svg">
<g clip-path="url(#clip0_113_38)">
<path d="M52.8873 47.2235C52.8873 47.2235 52.1766 46.5144 50.3687 46.323C49.2737 46.2048 48.1752 46.4774 47.1745 47.1155C46.7963 47.4216 46.4005 47.6821 45.9912 47.8944C45.528 48.0925 45.4641 47.5837 45.4641 47.5837C45.4641 47.5837 45.3763 47.4441 45.5344 46.7733C45.6925 46.1024 46.7353 45.7129 46.7353 45.7129C46.7353 45.7129 49.2811 44.7741 49.9599 44.612C50.3452 44.5515 50.722 44.4104 51.0778 44.1933C51.3637 44.0065 52.5152 43.2522 52.6924 41.6628C52.8074 40.652 52.4353 39.8618 52.3331 39.5354C51.8716 38.0675 49.9471 38 49.9471 38H39.9766V58.0815H47.7399C51.5473 58.0815 53.3504 56.6181 54.1665 54.8284C54.5987 53.8931 54.8141 52.7918 54.783 51.6766C54.6808 49.0313 53.1301 47.4689 52.8873 47.2235ZM51.3397 52.7842C51.3397 57.2058 47.347 57.3341 47.347 57.3341L43.5716 57.3476V38.7182C43.9948 38.7069 45.9209 38.6641 47.0851 38.7182C47.2421 38.7229 47.398 38.7578 47.5482 38.8217C48.1088 39.0604 48.6471 39.7515 48.8084 40.4697C49.0463 41.5368 48.3756 43.2185 47.2289 44.0537C45.7564 45.1253 45.2373 46.2555 45.2373 46.2555C45.1456 46.528 45.0759 46.8142 45.0297 47.1087C44.9307 47.7233 44.9754 48.4708 45.1159 48.8219C45.6494 50.1502 48.5912 47.9214 50.2266 49.5559C50.7201 50.0466 51.1816 50.9697 51.3397 52.7842Z" fill="#BBC4CD"/>
<path d="M59.3584 57.7304V43.1875H56.686V57.7304H59.3584Z" fill="#BBC4CD"/>
<path d="M68.385 57.9165C72.2699 57.9165 75.2144 55.8336 75.2144 52.8767C75.2144 49.9383 72.2699 47.8555 68.385 47.8555C64.5002 47.8555 61.5557 49.9383 61.5557 52.8767C61.5557 55.8336 64.5002 57.9165 68.385 57.9165ZM68.385 57.6747C65.8859 57.6747 64.3022 55.722 64.3022 52.8767C64.3022 49.8267 66.0096 48.0972 68.385 48.0972C70.8594 48.0972 72.4678 50.0499 72.4678 52.8767C72.4678 55.9452 70.7357 57.6747 68.385 57.6747Z" fill="#BBC4CD"/>
<path d="M83.7293 57.9165C87.6141 57.9165 90.5587 55.8336 90.5587 52.8767C90.5587 49.9383 87.6141 47.8555 83.7293 47.8555C79.8444 47.8555 76.8999 49.9383 76.8999 52.8767C76.8999 55.8336 79.8444 57.9165 83.7293 57.9165ZM83.7293 57.6747C81.2301 57.6747 79.6465 55.722 79.6465 52.8767C79.6465 49.8267 81.3539 48.0972 83.7293 48.0972C86.2037 48.0972 87.8121 50.0499 87.8121 52.8767C87.8121 55.9452 86.08 57.6747 83.7293 57.6747Z" fill="#BBC4CD"/>
<path d="M99.3951 57.7305H102.067V50.552C102.067 49.4176 102.884 48.6737 104.121 48.6737C105.309 48.6737 106.101 49.4176 106.101 50.5148V57.7305H108.773V50.6078C108.773 48.9713 107.313 47.8555 105.21 47.8555C103.602 47.8555 102.34 48.6179 101.894 49.6594C101.449 48.5622 100.211 47.8555 98.5538 47.8555C97.0939 47.8555 95.9556 48.4506 95.436 49.3804V48.0414H92.7637V57.7305H95.436V50.4776C95.436 49.4176 96.2526 48.6737 97.4403 48.6737C98.6033 48.6737 99.3951 49.4176 99.3951 50.4776V57.7305Z" fill="#BBC4CD"/>
<path d="M114.018 57.7304V43.1875H111.345V57.7304H114.018Z" fill="#BBC4CD"/>
<path d="M115.894 48.0415L120.966 57.8422L118.887 62.5287H119.234L125.692 48.0415H125.346L122.203 55.0712L118.64 48.0415H115.894Z" fill="#BBC4CD"/>
</g>
<defs>
<clipPath id="clip0_113_38">
<rect width="86.0465" height="25" fill="white" transform="translate(39.9766 38)"/>
</clipPath>
</defs>
</svg>
