<svg width="166" height="101" viewBox="0 0 166 101" fill="none" xmlns="http://www.w3.org/2000/svg">
<g clip-path="url(#clip0_113_29)">
<path fill-rule="evenodd" clip-rule="evenodd" d="M59.1182 40.5H39.4888V60.2554H59.1178V53.3594H55.8602C54.7373 55.8751 52.2097 57.6272 49.3172 57.6272C45.3295 57.6272 42.1002 54.3492 42.1002 50.3638C42.1002 46.3786 45.3295 43.1286 49.3172 43.1286C52.2658 43.1286 54.7934 44.9375 55.9167 47.5092H59.1182V40.5ZM78.1278 53.359C76.9767 55.8746 74.4772 57.6267 71.557 57.6268C67.6814 57.6268 64.5082 54.518 64.3678 50.646H81.3854V40.5H61.756V60.2549H81.3854V53.359H78.1278ZM78.3794 48.2156H64.6754C65.5459 44.9655 68.438 43.1286 71.5553 43.1286C74.6724 43.1286 77.3686 44.8523 78.3794 48.2156ZM123.773 50.3635C123.773 54.3768 120.571 57.6268 116.584 57.6268C112.624 57.6268 109.395 54.3487 109.395 50.3635C109.395 46.3782 112.596 43.1282 116.584 43.1282C120.571 43.1282 123.773 46.3502 123.773 50.3635ZM126.412 40.5H106.783V60.2554H126.412V40.5ZM101.071 53.359H104.329V60.2549H83.9975V40.5H87.3111V50.3635C87.3111 54.7725 90.5687 57.5988 94.4439 57.5988C97.4486 57.5988 100.088 55.9592 101.071 53.359Z" fill="#BBC4CD"/>
</g>
<defs>
<clipPath id="clip0_113_29">
<rect width="87.6923" height="20" fill="white" transform="translate(39.1538 40.5)"/>
</clipPath>
</defs>
</svg>
