<svg width="166" height="101" viewBox="0 0 166 101" fill="none" xmlns="http://www.w3.org/2000/svg">
<g clip-path="url(#clip0_113_64)">
<path d="M31.1936 46.2812L38.4893 50.5022L51.7772 42.8137V58.1871L38.4857 65.8792L25.1978 58.1942V42.8137L38.4893 35.1216L46.2098 39.5926" stroke="#BBC4CD" stroke-width="3.7569" stroke-linecap="round" stroke-linejoin="round"/>
<path d="M25.1978 50.5024L33.0005 55.0162" stroke="#BBC4CD" stroke-width="3.7569" stroke-linecap="round" stroke-linejoin="round"/>
<path d="M51.7759 50.5024L43.9731 55.0162" stroke="#BBC4CD" stroke-width="3.7569" stroke-linecap="round" stroke-linejoin="round"/>
<path d="M63.9204 42.3931H73.8816V44.5741H66.4579V48.5585H73.4623V50.7606H66.4579V55.1854H74.2801L73.9865 57.3663H63.9204V42.3931ZM82.6867 51.6832C82.6867 50.9981 82.6098 50.425 82.456 49.9636C82.3162 49.4883 82.1135 49.1178 81.8478 48.8521C81.5962 48.5725 81.2956 48.3769 80.9461 48.265C80.6105 48.1392 80.2541 48.0763 79.8766 48.0763C78.9958 48.0763 78.3107 48.3907 77.8215 49.0199C77.3461 49.6491 77.1084 50.6068 77.1084 51.893C77.1084 52.592 77.1713 53.1862 77.2971 53.6754C77.437 54.1648 77.6257 54.5633 77.8633 54.8708C78.115 55.1784 78.4016 55.4021 78.7232 55.5419C79.0448 55.6817 79.3942 55.7516 79.7717 55.7516C80.6385 55.7516 81.3376 55.472 81.8688 54.9127C82.4141 54.3396 82.6867 53.4517 82.6867 52.2494V51.6832ZM82.7077 55.8565C82.2603 56.4716 81.7499 56.933 81.1768 57.2405C80.6175 57.5481 79.9605 57.7019 79.2055 57.7019C78.4226 57.7019 77.7446 57.5621 77.1713 57.2824C76.5982 57.0029 76.1228 56.6114 75.7453 56.1081C75.3678 55.5909 75.0812 54.9826 74.8855 54.2837C74.7037 53.5706 74.6128 52.7877 74.6128 51.9349C74.6128 51.138 74.7107 50.397 74.9065 49.7119C75.1022 49.0129 75.3887 48.4117 75.7662 47.9085C76.1438 47.3912 76.605 46.9788 77.1503 46.6712C77.7096 46.3636 78.3527 46.1958 79.0797 46.1678C79.2194 46.1539 79.3593 46.1539 79.4991 46.1678C79.6389 46.1678 79.7857 46.1748 79.9395 46.1888C80.4288 46.2447 80.8971 46.3846 81.3446 46.6083C81.8059 46.818 82.2463 47.1744 82.6657 47.6778V42.3931H85.0354V57.3663H82.7077V55.8565ZM88.6712 53.0673C88.7691 54.018 89.0278 54.6961 89.4472 55.1015C89.8805 55.493 90.5657 55.6887 91.5023 55.6887C92.3273 55.6887 92.9773 55.493 93.4527 55.1015C93.928 54.7101 94.1657 54.0879 94.1657 53.2351C94.1657 52.4102 93.9419 51.8161 93.4946 51.4526C93.0612 51.089 92.418 50.9074 91.5652 50.9074H89.9924V48.7892H91.6701C92.8724 48.7892 93.5575 48.258 93.7252 47.1954C93.8231 46.9019 93.8511 46.5523 93.8091 46.1469C93.7252 45.5877 93.4806 45.1822 93.0752 44.9306C92.6697 44.6649 92.1455 44.5322 91.5023 44.5322C90.6635 44.5322 90.0274 44.7138 89.594 45.0774C89.1746 45.4269 88.86 46.0001 88.6504 46.797L86.3854 46.4824C86.4973 45.9371 86.665 45.4269 86.8888 44.9515C87.1264 44.4623 87.4479 44.0358 87.8534 43.6723C88.2589 43.2949 88.7551 43.0013 89.3424 42.7915C89.9435 42.5818 90.6705 42.477 91.5233 42.477C92.3342 42.477 93.0402 42.5818 93.6413 42.7915C94.2426 43.0013 94.7389 43.2809 95.1303 43.6304C95.5218 43.9799 95.8084 44.3854 95.9902 44.8467C96.1859 45.3081 96.2837 45.7974 96.2837 46.3147C96.2837 47.8525 95.6127 48.971 94.2705 49.6701C95.1093 50.0195 95.7105 50.5019 96.0741 51.117C96.4375 51.7182 96.6193 52.3962 96.6193 53.1512C96.6193 54.5773 96.1928 55.7027 95.34 56.5275C94.5012 57.3384 93.236 57.7438 91.5443 57.7438C90.5377 57.7438 89.6989 57.604 89.0278 57.3244C88.3567 57.0449 87.8184 56.6813 87.413 56.2339C87.0216 55.7866 86.735 55.2833 86.5532 54.7241C86.3854 54.1648 86.2875 53.6125 86.2596 53.0673H88.6712ZM106.926 55.2064C107.806 55.2064 108.554 55.0805 109.169 54.8288C109.799 54.5773 110.309 54.2137 110.7 53.7384C111.106 53.2631 111.399 52.6968 111.581 52.0398C111.763 51.3826 111.854 50.6417 111.854 49.8168C111.854 48.1671 111.504 46.8809 110.805 45.9581C110.106 45.0214 108.96 44.5532 107.366 44.5532H104.472V55.2064H106.926ZM107.345 42.3931C108.449 42.3931 109.442 42.5469 110.323 42.8545C111.204 43.1481 111.952 43.6024 112.567 44.2176C113.182 44.8327 113.65 45.6087 113.972 46.5454C114.307 47.4681 114.475 48.5515 114.475 49.7958C114.475 51.0401 114.3 52.1377 113.951 53.0883C113.601 54.025 113.098 54.8149 112.441 55.458C111.784 56.0871 110.98 56.5625 110.029 56.8841C109.092 57.2056 108.03 57.3663 106.842 57.3663H101.934V42.3931H107.345ZM119.604 42.3931H122.12L127.824 57.3663H125.119L123.714 53.5496H117.905L116.521 57.3663H113.899L119.604 42.3931ZM123.022 51.4316L120.799 45.2661L118.597 51.4316H123.022ZM134.273 57.7438C133.197 57.7438 132.225 57.5691 131.357 57.2195C130.505 56.8561 129.771 56.3388 129.156 55.6677C128.541 54.9966 128.065 54.1788 127.73 53.2142C127.408 52.2354 127.248 51.131 127.248 49.9007C127.248 48.6704 127.415 47.5659 127.751 46.5873C128.086 45.6087 128.562 44.7838 129.177 44.1127C129.792 43.4277 130.533 42.9104 131.4 42.5609C132.266 42.1974 133.224 42.0156 134.273 42.0156C135.336 42.0156 136.3 42.1974 137.166 42.5609C138.034 42.9104 138.768 43.4207 139.369 44.0918C139.97 44.7628 140.431 45.5877 140.753 46.5663C141.089 47.531 141.256 48.6284 141.256 49.8587C141.256 51.103 141.095 52.2146 140.774 53.1932C140.452 54.1578 139.991 54.9826 139.389 55.6677C138.788 56.3388 138.054 56.8561 137.188 57.2195C136.335 57.5691 135.363 57.7438 134.273 57.7438ZM134.252 55.5629C135.692 55.5629 136.782 55.0595 137.524 54.053C138.264 53.0324 138.634 51.6413 138.634 49.8797C138.634 48.999 138.537 48.2091 138.342 47.51C138.159 46.811 137.887 46.2168 137.524 45.7275C137.16 45.2382 136.705 44.8607 136.16 44.5951C135.615 44.3294 134.978 44.1966 134.252 44.1966C133.525 44.1966 132.889 44.3294 132.344 44.5951C131.799 44.8607 131.337 45.2382 130.96 45.7275C130.596 46.2168 130.323 46.811 130.142 47.51C129.96 48.2091 129.869 48.999 129.869 49.8797C129.869 51.6413 130.232 53.0324 130.96 54.053C131.7 55.0595 132.798 55.5629 134.252 55.5629Z" fill="#BBC4CD"/>
</g>
<defs>
<clipPath id="clip0_113_64">
<rect width="119.848" height="35" fill="white" transform="translate(23.0757 33)"/>
</clipPath>
</defs>
</svg>
