<svg width="166" height="101" viewBox="0 0 166 101" fill="none" xmlns="http://www.w3.org/2000/svg">
<g clip-path="url(#clip0_113_77)">
<path d="M61.2305 42.7886C61.2305 42.2198 61.4891 41.9354 62.0897 41.9354H64.8976V40H61.4593C59.8544 40 58.9655 40.9381 58.9655 42.447V46.0038H54.668V47.9669H58.9655V59.9193H61.2286V47.9669H68.1909V59.9193H70.454V46.0038H61.2266V42.7886H61.2305Z" fill="#BBC4CD"/>
<path d="M84.0701 48.196H83.6684C82.9525 46.9162 81.4908 45.6069 78.5675 45.6069C74.9004 45.6069 71.9492 48.3382 71.9492 52.7778V53.1472C71.9492 57.6145 74.9282 60.3182 78.5675 60.3182C81.4908 60.3182 82.9525 59.0088 83.7261 57.6145H84.1278V59.9192H86.3332V40H84.0701V48.196ZM84.0701 53.0899C84.0701 56.3901 82.0357 58.3255 79.17 58.3255C76.3044 58.3255 74.2421 56.3901 74.2421 53.0899V52.8332C74.2421 49.5331 76.2765 47.5976 79.17 47.5976C82.0635 47.5976 84.0701 49.5331 84.0701 52.8332V53.0899Z" fill="#BBC4CD"/>
<path d="M94.7894 45.6079C90.6928 45.6079 87.8271 48.5111 87.8271 52.8066V53.1483C87.8271 57.4457 90.665 60.3193 94.9326 60.3193C98.6872 60.3193 100.347 58.2416 101.209 56.478L99.2599 55.5379C98.5718 57.0745 97.3966 58.3266 94.9903 58.3266C92.2101 58.3266 90.2056 56.5333 90.1201 53.5452H101.525V52.5202C101.525 48.28 98.7747 45.606 94.7914 45.606L94.7894 45.6079ZM90.1479 51.6967C90.492 49.1075 92.24 47.5987 94.7894 47.5987C97.3389 47.5987 99.0591 49.1075 99.2301 51.6967H90.1459H90.1479Z" fill="#BBC4CD"/>
<path d="M113.438 53.0056C113.438 56.4479 111.519 58.2135 108.854 58.2135C106.475 58.2135 104.986 57.0187 104.986 54.2577V46.0044H102.723V54.4276C102.723 58.1562 105.159 60.1766 108.254 60.1766C111.119 60.1766 112.465 58.8968 113.096 57.5578H113.497V59.9198H115.703V46.0044H113.44V53.0056H113.438Z" fill="#BBC4CD"/>
<path d="M133.124 45.7495C130.746 45.7495 129.515 46.8298 128.885 48.1965H128.483C127.853 46.8298 126.534 45.7495 124.356 45.7495C122.179 45.7495 121.004 46.7449 120.458 47.7422H120.057V46.0063H117.852V59.9217H120.114V51.5558C120.114 49.0516 121.577 47.685 123.639 47.685C125.588 47.685 126.733 48.8522 126.733 50.7007V59.9197H128.996V51.5539C128.996 49.0497 130.457 47.683 132.52 47.683C134.469 47.683 135.614 48.8502 135.614 50.6988V59.9177H137.878V50.4993C137.878 47.5408 135.901 45.7476 133.121 45.7476L133.124 45.7495Z" fill="#BBC4CD"/>
<path d="M70.4567 40H68.1816V43.1421H70.4567V40Z" fill="#BBC4CD"/>
<path d="M33.83 53.7324H43.6122C43.6122 57.1451 40.8221 59.916 37.3857 59.916H27.6035C27.6035 56.5033 30.3936 53.7324 33.83 53.7324Z" fill="#BBC4CD"/>
<path d="M33.83 46.0034H50.1569C50.1569 49.4161 47.3668 52.1869 43.9304 52.1869H27.6035C27.6035 48.7743 30.3936 46.0034 33.83 46.0034Z" fill="#BBC4CD"/>
</g>
<defs>
<clipPath id="clip0_113_77">
<rect width="110.793" height="21" fill="white" transform="translate(27.6035 40)"/>
</clipPath>
</defs>
</svg>
