<svg width="166" height="101" viewBox="0 0 166 101" fill="none" xmlns="http://www.w3.org/2000/svg">
<path fill-rule="evenodd" clip-rule="evenodd" d="M55.807 44.4886C54.9577 44.6497 54.1603 44.9793 53.3909 45.4876C52.9457 45.7817 52.1501 46.595 51.8206 47.093C51.3788 47.7608 51.0519 48.5246 50.9063 49.2293C50.7793 49.8443 50.7394 50.4629 50.7933 50.9802C50.956 52.5418 51.5135 53.7368 52.5741 54.7973C53.4512 55.6744 54.4573 56.2219 55.6535 56.473C56.1765 56.5828 57.521 56.5846 58.0288 56.4761C59.082 56.2511 60.0679 55.7514 60.8959 55.0227C61.5014 54.4899 62.1537 53.5616 62.449 52.8125L62.5304 52.6061L62.0662 52.6061L61.6021 52.6063L61.4788 52.8437C60.8366 54.0808 59.748 55.0201 58.4626 55.4462C57.8657 55.644 57.5825 55.6838 56.7895 55.6815C56.151 55.6796 56.0182 55.6669 55.6514 55.5725C53.423 54.9994 51.8847 53.2108 51.67 50.9434C51.5303 49.4682 52.0612 47.9763 53.1126 46.8895C53.8589 46.1181 54.7556 45.6139 55.7775 45.3913C56.1938 45.3006 57.0838 45.272 57.5435 45.3346C59.1326 45.551 60.5311 46.5068 61.3591 47.9422L61.5474 48.2686H61.9982C62.3567 48.2686 62.4489 48.2568 62.4489 48.2108C62.4489 48.1183 62.0995 47.4485 61.8807 47.1217C60.9985 45.8041 59.683 44.8993 58.1321 44.5434C57.6497 44.4327 56.2732 44.4003 55.807 44.4886ZM83.1181 44.4898C81.6463 44.7591 80.3604 45.5091 79.4583 46.6243C78.746 47.5048 78.33 48.4221 78.141 49.5285C78.0254 50.2052 78.0795 51.3587 78.2581 52.0277C78.8279 54.1617 80.4779 55.8282 82.5666 56.3791C83.1904 56.5437 83.5724 56.5832 84.3327 56.5619C85.3406 56.5337 85.9198 56.3879 86.8421 55.9301C87.507 55.6001 87.9676 55.2577 88.5084 54.6912C89.3333 53.8272 89.8424 52.8486 90.0899 51.6516C90.2092 51.0747 90.2179 50.002 90.108 49.4252C89.7008 47.2883 88.2818 45.5851 86.2432 44.7865C85.9235 44.6613 85.5596 44.5647 85.1079 44.4852C84.6941 44.4124 83.5264 44.4151 83.1181 44.4898ZM106.98 50.4376V56.3244L110.254 56.3138L113.528 56.3033V55.8488V55.3944L110.729 55.3838L107.931 55.3732V49.962V44.5507H107.456H106.98V50.4376ZM26.8265 44.6196C26.8113 44.6347 26.7989 46.3254 26.7989 48.3766C26.7989 52.5476 26.8083 52.7276 27.067 53.5013C27.3181 54.2521 27.6051 54.7335 28.1177 55.2637C28.8006 55.97 29.602 56.3734 30.6354 56.5308C31.3011 56.6321 32.2709 56.5209 32.9953 56.26C34.4131 55.7495 35.3252 54.6883 35.6917 53.1228C35.7767 52.7599 35.7792 52.6489 35.7935 48.6713L35.8081 44.592H35.3353H34.8625L34.8435 48.63L34.8245 52.668L34.7135 53.0605C34.4319 54.0564 33.8257 54.8226 32.9846 55.2459C32.3286 55.5761 31.5429 55.7179 30.8792 55.626C29.6414 55.4545 28.7013 54.7839 28.1834 53.703C27.7981 52.8988 27.7903 52.7927 27.7903 48.3419V44.592H27.3222C27.0646 44.592 26.8416 44.6044 26.8265 44.6196ZM47.4824 44.6183C47.4666 44.6341 47.4536 47.0606 47.4536 50.0105V55.3738H47.3359C47.2712 55.3738 47.077 55.3619 46.9043 55.3473L46.5905 55.3207L46.0244 54.2009C45.7131 53.585 45.3244 52.8209 45.1606 52.5028C44.9967 52.1847 44.4394 51.0879 43.9221 50.0655C43.4047 49.0431 42.8656 47.9835 42.7241 47.7109C42.5826 47.4382 42.1721 46.6343 41.8119 45.9243L41.157 44.6333H39.9677H38.7783L38.7888 50.4889L38.7993 56.3446H39.2537H39.7081L39.7186 50.9625L39.729 45.5805L40.1242 45.5923L40.5192 45.6041L40.8387 46.2238C41.0143 46.5646 41.4989 47.5126 41.9154 48.3305C42.3319 49.1485 42.8257 50.1151 43.0127 50.4786C43.1997 50.8421 43.6272 51.6787 43.9628 52.3375C44.2985 52.9964 44.6887 53.7586 44.8301 54.0312C44.9714 54.3039 45.297 54.9408 45.5535 55.4467L46.0199 56.3665L47.2015 56.3555L48.3831 56.3446V50.4786V44.6127L47.9472 44.601C47.7075 44.5946 47.4984 44.6024 47.4824 44.6183ZM74.0156 50.4993V56.4065H74.5319H75.0483V50.4993V44.592H74.5319H74.0156V50.4993ZM101.569 49.9635C101.569 54.6901 101.562 55.3379 101.507 55.3588C101.473 55.3718 101.277 55.3666 101.071 55.3471L100.697 55.3118L100.118 54.1758C97.8748 49.7704 96.7061 47.4716 95.7763 45.6355L95.2693 44.6342L94.0815 44.6338L92.8937 44.6333L92.9042 50.4889L92.9146 56.3446H93.369H93.8234L93.8339 50.964L93.8444 45.5835H94.235H94.6256L95.0251 46.3787C95.2448 46.816 95.5032 47.3226 95.5994 47.5043C95.6955 47.6861 96.1417 48.5598 96.5908 49.4459C97.04 50.332 97.477 51.1871 97.5621 51.3461C97.6471 51.5052 98.0755 52.3417 98.514 53.205C98.9526 54.0684 99.4929 55.128 99.7147 55.5597L100.118 56.3446L101.298 56.3555L102.478 56.3665V50.4792V44.592H102.023H101.569V49.9635ZM115.738 50.458V56.3239H116.192H116.647L116.657 50.9434L116.668 45.5628H117.052H117.437L117.808 46.2857C118.013 46.6833 118.525 47.6871 118.947 48.5164C119.369 49.3457 119.849 50.2845 120.014 50.6026C120.178 50.9206 120.586 51.7153 120.919 52.3685L121.526 53.5562H119.871H118.217V54.0308V54.5055L120.12 54.5162L122.023 54.5269L122.479 55.4254L122.936 56.3239H123.491H124.046L123.377 55.0123C121.993 52.2966 121.637 51.5979 120.943 50.2308C120.551 49.4583 120.031 48.4359 119.787 47.9587C119.543 47.4816 119.057 46.5289 118.708 45.8416L118.072 44.5921L116.905 44.592H115.738V50.458ZM126.024 50.458V56.3239H126.478H126.933L126.943 50.9434L126.954 45.5628L127.329 45.551C127.598 45.5426 127.717 45.5543 127.747 45.5923C127.77 45.6215 128.119 46.296 128.523 47.0912C128.927 47.8865 129.392 48.7973 129.556 49.1154C129.721 49.4335 130.148 50.27 130.506 50.9743C130.864 51.6787 131.301 52.5338 131.477 52.8746C131.653 53.2154 132.109 54.1077 132.49 54.8574C132.871 55.6072 133.201 56.2439 133.223 56.2723C133.254 56.3114 133.547 56.3239 134.436 56.3239H135.608V50.458V44.592H135.154H134.699V49.9623V55.3325H134.268H133.836L133.457 54.5786C133.248 54.1639 132.924 53.5273 132.737 53.1637C132.549 52.8002 132.038 51.7964 131.601 50.933C131.163 50.0697 130.569 48.8985 130.279 48.3305C129.989 47.7625 129.442 46.689 129.063 45.9449L128.374 44.592H127.199H126.024V50.458ZM138.252 50.4583V56.3292L140.699 56.3133C142.773 56.2999 143.206 56.2868 143.532 56.2274C144.609 56.0314 145.381 55.6873 146.08 55.0914C146.376 54.839 146.854 54.3011 147.078 53.9693C147.684 53.0682 147.998 51.8763 148 50.468C148.001 49.3288 147.818 48.4637 147.377 47.5282C146.642 45.9704 145.501 45.0372 143.932 44.7103C143.491 44.6184 143.4 44.6152 140.865 44.6015L138.252 44.5875V50.4583ZM18 50.4993V56.3652H18.4751H18.9501V53.6594V50.9537H21.5113H24.0725V50.4993V50.0449H21.5113H18.9501V47.7729V45.5008H21.7178H24.4856V45.0671V44.6333H21.2428H18V50.4993ZM63.2338 45.0671V45.5008H65.0514H66.869V50.933V56.3652H67.3646H67.8602L67.8706 50.9227L67.8811 45.4802L69.7091 45.4694L71.537 45.4587V45.046V44.6333H67.3854H63.2338V45.0671ZM85.0058 45.361C86.8721 45.6816 88.4484 47.0382 89.0536 48.8447C89.2473 49.4228 89.3105 49.8299 89.3105 50.4993C89.3105 51.1687 89.2473 51.5758 89.0536 52.1539C88.7818 52.9653 88.4031 53.5567 87.7327 54.2171C87.0114 54.9276 86.3288 55.3141 85.3545 55.5636C84.9411 55.6695 84.8342 55.68 84.157 55.6815C83.3561 55.6833 83.1699 55.6568 82.5253 55.4491C81.4285 55.0957 80.4729 54.3693 79.8033 53.38C79.629 53.1223 79.3347 52.526 79.2277 52.2136C78.8454 51.0974 78.8457 49.8934 79.2284 48.7849C79.8423 47.0069 81.3816 45.6958 83.2482 45.361C83.7033 45.2793 84.5305 45.2793 85.0058 45.361ZM143.808 45.5719C144.875 45.813 145.633 46.3321 146.206 47.2152C146.637 47.8779 146.9 48.5212 147.035 49.2393C147.094 49.556 147.112 49.8405 147.111 50.458C147.11 51.3462 147.066 51.7008 146.878 52.3357C146.653 53.0952 146.344 53.6041 145.731 54.2218C145.057 54.9012 144.279 55.2552 143.154 55.3945C142.78 55.4408 142.206 55.4564 140.886 55.4564H139.119V50.4547V45.4531L141.278 45.4705C143.261 45.4865 143.466 45.4948 143.808 45.5719Z" fill="#BBC4CD"/>
</svg>
