<svg width="166" height="101" viewBox="0 0 166 101" fill="none" xmlns="http://www.w3.org/2000/svg">
<g clip-path="url(#clip0_113_48)">
<path d="M100.172 43.2458C100.098 53.0339 92.2482 60.9617 82.3862 60.9777C72.575 60.9936 64.5587 52.9469 64.6239 43.1168C64.6877 33.6231 72.3619 25.5053 82.3746 25.4995C92.1699 25.4937 100.073 33.2969 100.172 43.2458ZM82.4834 27.0639C73.4522 27.032 66.1869 34.2958 66.1637 43.2763C66.1405 52.4003 73.4333 59.6235 82.4776 59.6308C91.5262 59.638 98.8001 52.4206 98.8132 43.3459C98.8248 34.2973 91.4972 27.0175 82.4848 27.0639H82.4834Z" fill="#BBC4CD"/>
<path d="M69.1127 72.7303C69.0851 72.7492 69.0735 72.7521 69.0721 72.7579C68.986 73.1126 68.7565 73.2899 68.3834 73.2899C67.8682 73.2899 67.6106 73.0328 67.6106 72.5186C67.6106 70.151 67.6106 67.7834 67.6106 65.4157C67.6106 64.9808 67.6149 64.9764 68.0572 64.9764C68.2877 64.9764 68.5182 64.9851 68.7487 64.975C68.9851 64.9634 69.0634 65.0692 69.0605 65.2954C69.0532 66.0899 69.0576 66.8845 69.059 67.6804C69.059 67.7457 69.0706 67.8095 69.0779 67.8863C70.5567 66.6728 72.5546 67.2962 73.3405 68.3329C74.1886 69.4493 74.2466 71.1572 73.2549 72.3504C72.7446 72.9637 72.0501 73.2711 71.2454 73.3494C70.4407 73.4277 69.7303 73.2247 69.1112 72.7289L69.1127 72.7303ZM72.4415 70.2902C72.4415 69.2245 71.7804 68.5141 70.7887 68.5112C69.7622 68.5083 69.0634 69.2274 69.0547 70.2815C69.046 71.2906 69.7723 72.0677 70.7669 72.0764C71.7398 72.0851 72.5488 71.2036 72.443 70.2916L72.4415 70.2902Z" fill="#BBC4CD"/>
<path d="M55.6163 70.8459C55.6163 71.2736 55.6119 71.6999 55.6177 72.1276C55.6206 72.3161 55.5539 72.4495 55.3959 72.5568C54.6637 73.0541 53.846 73.3107 52.9746 73.3803C51.9191 73.4644 50.9187 73.2701 50.0242 72.6655C49.2354 72.1305 48.6932 71.3983 48.4684 70.4806C48.0697 68.8582 48.4337 67.43 49.7255 66.3151C50.304 65.8163 51.0014 65.5597 51.7596 65.4162C52.4962 65.277 53.2023 65.364 53.9083 65.538C54.5071 65.6859 55.0305 65.9903 55.4959 66.3905C55.7178 66.5819 55.712 66.6877 55.4988 66.895C55.3147 67.0734 55.119 67.2401 54.9435 67.4271C54.8044 67.5765 54.7 67.562 54.5593 67.43C53.6996 66.6196 52.1743 66.534 51.2232 67.0328C50.0097 67.6693 49.6544 68.9988 49.9763 70.1717C50.2097 71.0228 50.7882 71.5781 51.5915 71.8594C52.3802 72.1348 53.1863 72.0711 53.9678 71.7622C54.1244 71.6999 54.178 71.5911 54.1751 71.423C54.1679 70.7995 54.1809 70.1746 54.1679 69.5512C54.1621 69.3018 54.2563 69.2163 54.497 69.2293C54.7609 69.2438 55.0262 69.2438 55.2915 69.2293C55.5409 69.2163 55.6221 69.3236 55.6163 69.5628C55.6047 69.9891 55.6134 70.4168 55.6134 70.8445L55.6163 70.8459Z" fill="#BBC4CD"/>
<path d="M94.9953 68.0897C94.9953 68.8248 95.0142 69.5599 94.9895 70.2949C94.9692 70.8705 94.817 71.42 94.5241 71.926C93.9819 72.8626 93.1148 73.273 92.0927 73.3744C91.2706 73.4556 90.463 73.3744 89.7048 72.9714C88.9421 72.5654 88.5115 71.926 88.2825 71.1214C88.1505 70.6574 88.1186 70.1833 88.1215 69.7019C88.1273 68.4116 88.123 67.1212 88.1244 65.8308C88.1244 65.4611 88.1447 65.4422 88.5188 65.4408C88.7841 65.4408 89.048 65.4393 89.3133 65.4408C89.6337 65.4437 89.6685 65.4741 89.6685 65.7931C89.67 66.7167 89.6656 67.6388 89.67 68.5624C89.6729 69.1684 89.6627 69.7744 89.7106 70.3805C89.7802 71.2837 90.334 71.8956 91.2271 72.0058C91.4388 72.0319 91.6461 72.0377 91.8622 72.0203C92.9293 71.9362 93.4382 71.1968 93.4556 70.2021C93.4802 68.7755 93.4628 67.3474 93.4643 65.9207C93.4643 65.4756 93.4991 65.4422 93.9456 65.4408C94.1935 65.4408 94.4415 65.4495 94.6879 65.4379C94.9228 65.4263 95.004 65.5292 95.0011 65.7569C94.9939 66.534 94.9982 67.3126 94.9982 68.0897H94.9953Z" fill="#BBC4CD"/>
<path d="M78.7253 72.7343C78.054 73.2939 77.3219 73.4476 76.5128 73.3331C76.117 73.2765 75.7574 73.1606 75.4153 72.9431C74.8716 72.5966 74.6483 72.0732 74.6744 71.486C74.7063 70.7465 75.0978 70.2028 75.8241 69.9448C76.2895 69.7795 76.7782 69.7708 77.2624 69.7476C77.6292 69.7302 77.9975 69.7345 78.3643 69.7476C78.6035 69.7548 78.6717 69.6403 78.6354 69.433C78.576 69.0937 78.3933 68.8342 78.0932 68.6674C77.709 68.4543 77.2914 68.4383 76.8724 68.4949C76.4302 68.5543 76.0068 68.6892 75.6328 68.9429C75.4907 69.0386 75.4008 69.0197 75.3225 68.8762C75.1964 68.6428 75.0717 68.4108 74.9441 68.1788C74.86 68.0251 74.9165 67.9193 75.0528 67.8367C75.4356 67.6047 75.8531 67.4582 76.2837 67.3451C76.7941 67.2103 77.319 67.2016 77.8351 67.2466C78.7282 67.3249 79.4923 67.6627 79.9055 68.5282C80.0563 68.8458 80.1302 69.1923 80.1317 69.546C80.1375 70.6914 80.1317 71.8368 80.1389 72.9808C80.1404 73.2127 80.0606 73.3084 79.8258 73.2968C79.5706 73.2838 79.3125 73.2823 79.0573 73.2968C78.808 73.3113 78.7123 73.207 78.7384 72.9663C78.7456 72.901 78.7326 72.8343 78.7268 72.7386L78.7253 72.7343ZM77.6698 70.7712C77.3653 70.7886 76.9942 70.7233 76.639 70.8538C76.3403 70.964 76.1417 71.2018 76.1344 71.4657C76.1257 71.7658 76.3142 72.0166 76.6143 72.1529C76.9086 72.2877 77.216 72.2718 77.5176 72.2442C78.2106 72.1819 78.6717 71.6556 78.6412 71.009C78.6325 70.8335 78.5629 70.7639 78.3919 70.7683C78.17 70.7741 77.9482 70.7683 77.6684 70.7683L77.6698 70.7712Z" fill="#BBC4CD"/>
<path d="M59.9788 70.5835C59.9788 68.8842 60.8197 67.7214 62.184 67.3662C63.3758 67.056 64.5125 67.2154 65.4621 68.0839C66.1189 68.6842 66.3988 69.4671 66.3799 70.337C66.3538 71.5781 65.7855 72.5321 64.6488 73.0497C63.3424 73.6456 61.7969 73.4484 60.7472 72.3668C60.1962 71.7999 59.9933 71.0648 59.9788 70.5835ZM63.1496 72.0565C64.2298 72.1363 64.8967 71.1895 64.8981 70.3269C64.8981 69.2554 64.195 68.529 63.1743 68.5044C62.2521 68.4812 61.4808 69.2453 61.504 70.1862C61.533 71.3766 62.1028 72.0551 63.1496 72.0565Z" fill="#BBC4CD"/>
<path d="M112.002 67.285C112.772 67.2995 112.605 67.1646 112.937 67.9417C113.407 69.0407 113.875 70.1412 114.346 71.2387C114.378 71.3127 114.384 71.433 114.482 71.4374C114.603 71.4432 114.606 71.3083 114.639 71.2315C115.168 70.0093 115.693 68.7856 116.211 67.5575C116.287 67.3763 116.392 67.2792 116.59 67.2821C116.872 67.2864 117.154 67.2777 117.436 67.285C117.691 67.2908 117.733 67.3546 117.636 67.5793C117.037 68.9581 116.437 70.3355 115.838 71.7143C115.545 72.3885 115.258 73.0641 114.965 73.7369C114.759 74.2081 114.536 74.6735 114.121 75.004C113.511 75.4912 112.808 75.5767 112.064 75.4404C111.768 75.3853 111.491 75.2737 111.233 75.1186C111.059 75.0142 111.003 74.8866 111.123 74.6938C111.245 74.498 111.346 74.2907 111.452 74.0848C111.542 73.9108 111.652 73.8717 111.82 73.9906C112.086 74.1805 112.382 74.269 112.711 74.2545C113.317 74.2284 113.807 73.502 113.569 72.9452C112.996 71.6027 112.409 70.2659 111.828 68.9262C111.638 68.4869 111.443 68.0505 111.256 67.6097C111.153 67.3676 111.201 67.2951 111.458 67.285C111.62 67.2777 111.783 67.285 112.002 67.285Z" fill="#BBC4CD"/>
<path d="M98.234 67.9035C98.64 67.5787 99.0808 67.3525 99.5781 67.2786C100.573 67.1292 101.488 67.2684 102.182 68.0905C102.547 68.5225 102.672 69.0503 102.684 69.5925C102.707 70.7278 102.689 71.8645 102.695 73.0012C102.695 73.2071 102.621 73.297 102.41 73.2912C102.111 73.281 101.812 73.281 101.514 73.2912C101.282 73.2998 101.196 73.2042 101.198 72.9736C101.203 71.9138 101.209 70.8539 101.198 69.7955C101.192 69.3446 101.016 68.9387 100.607 68.7255C99.8347 68.3225 98.627 68.5457 98.3471 69.6041C98.2964 69.7941 98.2732 69.9884 98.2746 70.187C98.279 71.0932 98.2775 71.9979 98.2746 72.904C98.2746 73.2665 98.2543 73.2868 97.9035 73.2882C97.6309 73.2882 97.3569 73.281 97.0843 73.2897C96.861 73.2969 96.7842 73.1955 96.7842 72.9809C96.7885 71.1787 96.7871 69.3751 96.7842 67.5729C96.7842 67.367 96.8683 67.2757 97.0742 67.28C97.3308 67.2858 97.586 67.28 97.8426 67.2815C98.1471 67.2844 98.1746 67.3163 98.1833 67.6222C98.1862 67.7048 98.1601 67.7918 98.2355 67.902L98.234 67.9035Z" fill="#BBC4CD"/>
<path d="M109.196 70.0927C109.196 70.4943 109.194 70.8959 109.196 71.2976C109.199 71.7949 109.436 72.2153 110.192 72.0776C110.267 72.0631 110.346 72.0587 110.419 72.0399C110.67 71.9751 110.843 72.065 110.94 72.3096C110.956 72.3487 110.972 72.3893 110.985 72.4299C111.188 73.004 111.165 73.0838 110.575 73.2491C109.899 73.439 109.226 73.4318 108.59 73.0765C108.079 72.7909 107.824 72.3371 107.758 71.7717C107.656 70.9032 107.729 70.0304 107.71 69.1605C107.707 69.0575 107.702 68.9546 107.71 68.8531C107.724 68.6501 107.647 68.5602 107.431 68.5602C106.708 68.5617 106.732 68.682 106.735 67.8527C106.736 67.5066 106.908 67.3336 107.252 67.3336C107.32 67.3336 107.388 67.3293 107.456 67.3336C107.647 67.3481 107.713 67.2524 107.708 67.0712C107.702 66.8146 107.71 66.558 107.708 66.3028C107.707 66.0954 107.785 65.9838 108.011 65.9911C108.31 66.0012 108.609 65.9998 108.907 65.9911C109.12 65.9853 109.197 66.0838 109.193 66.2854C109.187 66.5507 109.199 66.816 109.19 67.0799C109.184 67.2684 109.267 67.338 109.451 67.3351C109.792 67.3278 110.134 67.3394 110.476 67.3307C110.691 67.3249 110.796 67.4018 110.786 67.628C110.778 67.8324 110.78 68.0383 110.786 68.2427C110.792 68.4718 110.682 68.5675 110.459 68.5631C110.134 68.5573 109.809 68.5718 109.486 68.5588C109.26 68.5501 109.186 68.6429 109.191 68.8603C109.203 69.2706 109.194 69.681 109.194 70.0913L109.196 70.0927Z" fill="#BBC4CD"/>
<path d="M58.7542 69.158C58.7542 70.4223 58.7542 71.6851 58.7542 72.9494C58.7542 73.2654 58.731 73.2872 58.4222 73.2901C58.1409 73.2915 57.8582 73.2828 57.5769 73.293C57.3478 73.3017 57.2536 73.2104 57.258 72.9784C57.2667 72.4753 57.2609 71.9707 57.2609 71.4662C57.2609 69.4509 57.2609 67.4355 57.2609 65.4202C57.2609 65.0099 57.2928 64.9795 57.6929 64.978C57.9234 64.978 58.154 64.978 58.3845 64.978C58.7238 64.9809 58.7528 65.007 58.7542 65.3419C58.7542 66.6149 58.7542 67.8865 58.7542 69.1594V69.158Z" fill="#BBC4CD"/>
<path d="M81.8174 69.1321C81.8174 67.8765 81.8174 66.6195 81.8174 65.3639C81.8174 64.9942 81.8348 64.9783 82.2118 64.9783C82.4684 64.9783 82.7236 64.9841 82.9802 64.9783C83.2079 64.9725 83.3079 65.074 83.3064 65.3001C83.3021 65.7786 83.3064 66.257 83.3064 66.7355C83.3064 68.7784 83.3064 70.8198 83.3064 72.8626C83.3064 73.2831 83.2977 73.2918 82.8744 73.2918C82.6265 73.2918 82.3785 73.2831 82.1321 73.2947C81.9001 73.3063 81.8131 73.2106 81.816 72.9786C81.8232 72.0898 81.8189 71.2011 81.8189 70.3123C81.8189 69.9194 81.8189 69.5265 81.8189 69.1336L81.8174 69.1321Z" fill="#BBC4CD"/>
<path d="M105.814 70.3017C105.814 71.1803 105.814 72.0604 105.814 72.939C105.814 73.2609 105.785 73.287 105.461 73.2899C105.205 73.2913 104.95 73.2913 104.693 73.2899C104.352 73.2884 104.325 73.2623 104.323 72.9274C104.323 71.8342 104.323 70.7424 104.323 69.6492C104.323 68.9838 104.323 68.3183 104.323 67.6513C104.323 67.328 104.365 67.2874 104.696 67.2831C104.968 67.2802 105.242 67.2889 105.515 67.2802C105.735 67.2729 105.818 67.3672 105.817 67.5861C105.811 68.4908 105.814 69.3955 105.814 70.3002V70.3017Z" fill="#BBC4CD"/>
<path d="M105.079 66.4101C104.433 66.429 104.137 65.9099 104.131 65.5431C104.124 65.0559 104.562 64.6761 105.088 64.6862C105.617 64.6949 106.011 65.0444 106.014 65.5069C106.017 66.0216 105.613 66.413 105.079 66.4116V66.4101Z" fill="#BBC4CD"/>
<path d="M82.5087 58.7727C74.1125 58.9467 66.9879 51.8163 67.088 43.2621C67.1851 34.9457 73.9734 28.0429 82.4623 28.0298C90.9991 28.0153 97.8845 35.0196 97.8831 43.4491C97.8816 51.8279 90.8904 58.9134 82.5087 58.7727ZM76.4845 43.4143C76.4497 43.9392 76.573 44.4379 76.702 44.9338C76.992 46.0603 77.6125 46.981 78.4723 47.7523C78.5201 47.7958 78.5665 47.8726 78.6434 47.8378C78.7231 47.8016 78.7246 47.7117 78.7304 47.6363C78.7521 47.3782 78.5622 47.2347 78.4114 47.0796C77.7764 46.4286 77.3327 45.6616 77.1181 44.7844C76.6948 43.0446 77.0065 41.4381 78.149 40.039C79.3625 38.5515 80.9472 37.8976 82.8567 38.089C84.669 38.2716 86.0203 39.1981 86.9395 40.7524C87.4817 41.6716 87.6862 42.6763 87.6282 43.7492C87.5789 44.6452 87.3136 45.4528 86.8554 46.214C86.6104 46.62 86.2943 46.9636 85.9724 47.3057C85.839 47.4478 85.8071 47.6479 85.9333 47.7697C86.058 47.89 86.1725 47.7117 86.2639 47.6233C87.5484 46.3764 88.1748 44.87 88.0805 43.0692C88.0051 41.6295 87.4455 40.4044 86.4567 39.3808C85.4983 38.3891 84.3181 37.8309 82.9408 37.6656C81.6605 37.5134 80.4542 37.754 79.3698 38.4123C77.5096 39.5403 76.5512 41.2323 76.4845 43.4143ZM85.3156 48.1945C85.291 46.836 84.843 45.6007 83.9571 44.5278C83.7947 44.3306 83.6034 44.1581 83.4178 43.9812C83.2684 43.8391 83.0988 43.8884 82.9843 44.0102C82.8683 44.1334 83.0379 44.1987 83.1032 44.2697C83.2931 44.4785 83.5149 44.6597 83.686 44.8816C84.9024 46.4605 85.1547 48.2076 84.5284 50.0808C84.179 51.1232 83.5251 51.9685 82.6334 52.5992C81.646 53.298 80.5354 53.6417 79.3089 53.5895C77.685 53.5184 76.37 52.8413 75.3362 51.6017C74.8288 50.9942 74.5142 50.2867 74.2981 49.5327C74.2633 49.411 74.2097 49.3109 74.0879 49.2602C74.0183 49.2312 73.9415 49.1775 73.8704 49.2283C73.795 49.2819 73.8356 49.3689 73.8487 49.4428C74.0082 50.3563 74.3909 51.1711 74.997 51.8656C76.6498 53.7591 78.6912 54.4217 81.1429 53.775C82.123 53.517 82.9408 52.9907 83.6396 52.2889C84.7502 51.174 85.2953 49.8068 85.3156 48.1945ZM73.7109 38.7588C73.6761 39.8897 74.127 41.0481 74.8926 42.0993C75.1289 42.4241 75.4029 42.7184 75.7291 42.9605C75.848 43.0489 75.9089 43.0417 75.9205 42.8808C75.9336 42.7024 75.9031 42.5502 75.7625 42.4168C75.445 42.1167 75.1811 41.7702 74.9477 41.4005C74.2372 40.2725 73.9966 39.0227 74.214 37.7352C74.4939 36.0708 75.3739 34.7572 76.8745 33.9192C78.4418 33.0434 80.0671 32.9695 81.6997 33.6944C83.2525 34.3831 84.2282 35.5966 84.6908 37.2277C84.7357 37.3843 84.8009 37.5134 84.9735 37.5583C85.0358 37.5757 85.0953 37.6584 85.1591 37.6105C85.2388 37.5496 85.2011 37.4525 85.1837 37.3713C84.9169 36.1998 84.3558 35.2023 83.4729 34.3759C82.5479 33.5103 81.4735 32.9956 80.2179 32.8492C78.3287 32.6273 76.7049 33.1986 75.3667 34.5324C74.259 35.6372 73.7051 36.9943 73.7109 38.7603V38.7588ZM79.7105 48.3366C79.7337 47.7088 79.8062 47.1506 79.9816 46.6113C80.3832 45.3687 81.1444 44.3988 82.2405 43.697C83.1177 43.1359 84.0876 42.8561 85.1272 42.875C85.6796 42.8851 86.2363 42.9228 86.7626 43.1345C86.8467 43.1678 86.954 43.207 87.0149 43.0997C87.0729 42.9982 87.0192 42.9011 86.9583 42.8155C86.9047 42.7416 86.8206 42.7213 86.738 42.6966C86.3682 42.5893 85.9942 42.527 85.61 42.4806C84.5298 42.353 83.5091 42.5864 82.5493 43.0257C81.8882 43.3288 81.3097 43.7971 80.8022 44.3437C79.7627 45.4659 79.2668 46.8055 79.2712 48.3091C79.2755 49.6067 79.7061 50.7883 80.5282 51.8119C80.7167 52.0454 80.9182 52.2657 81.14 52.4658C81.2908 52.6021 81.4721 52.6065 81.5967 52.46C81.7229 52.3121 81.5373 52.2425 81.4532 52.1657C80.3122 51.1203 79.7888 49.7995 79.7105 48.3381V48.3366ZM85.0996 32.8028C84.5052 32.8028 83.9238 32.8724 83.3583 33.0579C83.2612 33.0898 83.0872 33.0855 83.1075 33.2203C83.1263 33.3537 83.2771 33.4277 83.4149 33.4537C83.4772 33.4668 83.5512 33.4494 83.615 33.4291C84.3109 33.2102 85.0199 33.1681 85.7405 33.2624C87.1773 33.4508 88.3618 34.0946 89.2636 35.2342C90.2742 36.5101 90.625 37.9512 90.3481 39.5606C90.1567 40.6712 89.642 41.5991 88.8635 42.3907C88.7315 42.5255 88.675 42.6691 88.6924 42.8503C88.6982 42.9083 88.6808 42.9794 88.746 43.0113C88.8142 43.0446 88.8519 42.9765 88.8968 42.9417C89.268 42.6604 89.5637 42.3052 89.8262 41.9268C90.8135 40.5059 91.1354 38.9458 90.7425 37.2553C90.4714 36.0925 89.8842 35.1109 88.9954 34.3092C87.8877 33.3117 86.593 32.8086 85.104 32.8042L85.0996 32.8028ZM76.6948 49.1746C76.789 49.1746 76.8832 49.1746 76.976 49.1746C77.4835 49.1746 77.975 49.0731 78.4592 48.9252C78.6376 48.8702 78.7289 48.7643 78.6724 48.5845C78.6144 48.4004 78.4708 48.4801 78.3505 48.5091C78.3085 48.5193 78.2693 48.5352 78.2287 48.5483C77.3095 48.8354 76.3772 48.8542 75.4493 48.6222C73.985 48.2583 72.8613 47.4087 72.1001 46.1125C71.3549 44.8424 71.1563 43.4825 71.5332 42.0413C71.7826 41.0887 72.2683 40.2826 72.9599 39.5939C73.0817 39.4736 73.1745 39.3474 73.1179 39.1648C73.0991 39.1024 73.1295 39.0111 73.057 38.9806C72.9701 38.9429 72.9208 39.0285 72.8642 39.0763C72.3829 39.4953 71.974 39.9825 71.671 40.5378C70.6126 42.4777 70.5966 44.4568 71.7246 46.3459C72.8265 48.1916 74.5272 49.1282 76.6948 49.1717V49.1746ZM90.4424 48.5077C90.454 48.9702 90.3032 49.6705 90.0147 50.349C89.542 51.4582 88.7823 52.3049 87.7398 52.8993C87.0801 53.2763 86.3682 53.5213 85.6114 53.5779C84.9488 53.6286 84.2804 53.6098 83.6338 53.4024C83.499 53.3589 83.3627 53.3691 83.2423 53.459C83.1887 53.4996 83.1075 53.5242 83.1089 53.6025C83.1118 53.7011 83.2061 53.7098 83.2771 53.7301C83.9919 53.9461 84.7139 54.0665 85.4679 54.0056C87.1381 53.8722 88.5169 53.182 89.5811 51.8917C90.7019 50.5331 91.0948 48.9557 90.8164 47.2391C90.6033 45.9182 89.9436 44.8062 88.9403 43.9102C88.8896 43.8652 88.8417 43.7985 88.7663 43.8232C88.6735 43.8551 88.6953 43.9479 88.688 44.0218C88.6634 44.3045 88.8925 44.4452 89.0418 44.6163C89.9465 45.6544 90.4453 46.8447 90.4395 48.5077H90.4424ZM93.6596 43.3578C93.7408 42.6241 93.5233 41.9021 93.2478 41.2018C92.9173 40.3638 92.3823 39.6592 91.7124 39.0575C91.5791 38.9371 91.524 39.0067 91.4819 39.1387C91.4123 39.3576 91.5457 39.4881 91.6805 39.6258C92.7056 40.6668 93.2333 41.9355 93.2406 43.3824C93.2478 44.8511 92.7186 46.1343 91.6762 47.1869C91.5602 47.3028 91.4399 47.413 91.4616 47.6001C91.4703 47.6755 91.4529 47.7668 91.524 47.8118C91.611 47.8668 91.6646 47.7741 91.7197 47.732C92.117 47.4275 92.4461 47.0491 92.7056 46.6316C93.3203 45.6471 93.7423 44.5916 93.6611 43.3578H93.6596ZM81.6286 34.4208C81.6286 34.3425 81.575 34.3179 81.5199 34.2918C81.3198 34.2004 81.1763 34.2961 81.0429 34.431C80.2484 35.2371 79.6539 36.1563 79.4437 37.2886C79.4234 37.4003 79.3147 37.5685 79.419 37.6163C79.5597 37.6816 79.7032 37.5438 79.812 37.438C79.8627 37.3887 79.8961 37.306 79.9077 37.2335C79.9598 36.9088 80.1034 36.6159 80.2324 36.3201C80.5209 35.6619 80.9603 35.1109 81.4721 34.6136C81.5329 34.5556 81.604 34.5034 81.6272 34.4179L81.6286 34.4208ZM75.9234 44.0537C75.9133 43.9725 75.9481 43.8681 75.8509 43.8261C75.7668 43.7913 75.7132 43.8725 75.6581 43.9247C75.2333 44.3234 74.8389 44.7467 74.5374 45.2498C74.214 45.7892 73.9705 46.359 73.8458 46.9766C73.8052 47.1796 73.9284 47.2666 74.0835 47.3072C74.2749 47.3579 74.2503 47.1782 74.2735 47.0796C74.52 46.0299 75.0187 45.1223 75.7871 44.3669C75.8799 44.2755 75.9379 44.1842 75.9234 44.0537ZM82.2086 42.2631C82.181 42.4154 82.2535 42.4719 82.3956 42.427C82.5218 42.3864 82.6029 42.2994 82.6551 42.1674C82.7624 41.8978 82.819 41.6136 82.9335 41.3454C83.2539 40.5842 83.7599 39.9564 84.3254 39.3721C84.4878 39.2039 84.4109 39.1546 84.2485 39.101C84.1413 39.0662 84.0485 39.0792 83.9644 39.1575C83.0466 40.0042 82.4304 41.022 82.21 42.2646L82.2086 42.2631ZM87.8892 49.1746C88.4662 49.2022 89.0258 49.1021 89.5811 48.947C89.7783 48.8919 89.861 48.7759 89.8088 48.5903C89.7464 48.3699 89.5869 48.5004 89.4739 48.5323C89.0287 48.6556 88.5836 48.7556 88.1153 48.7701C87.4585 48.7904 86.8221 48.7078 86.1972 48.5062C86.1174 48.4801 86.0275 48.4352 85.9594 48.5178C85.9043 48.586 85.8927 48.6788 85.9101 48.7629C85.9318 48.8731 86.0348 48.8962 86.1232 48.9238C86.6988 49.0992 87.2846 49.2065 87.8906 49.1761L87.8892 49.1746ZM82.2956 49.1717C82.8741 49.2138 83.4221 49.0905 83.9702 48.96C84.1746 48.9107 84.2746 48.7948 84.2195 48.5947C84.1572 48.3699 83.9905 48.5106 83.8832 48.5396C83.4207 48.6614 82.9596 48.7614 82.4768 48.7745C81.8374 48.7919 81.2212 48.6918 80.6152 48.5062C80.5238 48.4787 80.4006 48.4192 80.3557 48.5642C80.3151 48.6933 80.3368 48.8252 80.4745 48.8948C80.5499 48.9339 80.6326 48.9571 80.7152 48.9774C81.2372 49.1123 81.762 49.2152 82.297 49.1746L82.2956 49.1717ZM76.8281 37.6308C76.1554 37.6236 75.5566 37.696 74.9752 37.8889C74.7969 37.9483 74.765 38.0861 74.8099 38.2368C74.8592 38.4007 74.9883 38.3253 75.0883 38.2948C76.1177 37.9817 77.1515 37.9483 78.1867 38.2586C78.3302 38.3021 78.4563 38.2847 78.5694 38.1876C78.6202 38.1441 78.6999 38.1151 78.6956 38.0368C78.6912 37.9367 78.5926 37.9338 78.5245 37.9106C77.9532 37.7192 77.3704 37.6047 76.8281 37.6294V37.6308ZM87.6978 37.6337C87.3237 37.6468 86.7177 37.6729 86.1435 37.8932C86.0551 37.9266 85.9086 37.9208 85.9144 38.0542C85.9202 38.1774 86.0536 38.2166 86.1508 38.2658C86.2407 38.3108 86.332 38.2774 86.4248 38.2542C86.8873 38.1339 87.3556 38.0484 87.837 38.0397C88.4227 38.0295 88.9882 38.1499 89.5478 38.3021C89.6435 38.3282 89.7624 38.3891 89.8044 38.2426C89.8436 38.1064 89.8363 37.9657 89.6667 37.9048C89.6348 37.8932 89.6014 37.886 89.5681 37.8758C89.0345 37.7163 88.4908 37.6207 87.6992 37.6323L87.6978 37.6337ZM79.6162 42.4531C78.9362 42.4502 78.3577 42.5386 77.7923 42.7155C77.6183 42.7706 77.527 42.8996 77.5864 43.0678C77.6473 43.2403 77.7981 43.1606 77.9155 43.1214C78.9072 42.7894 79.9077 42.7923 80.9081 43.0663C81.0878 43.1156 81.2401 43.1258 81.3807 42.9895C81.4271 42.9446 81.5257 42.9344 81.5054 42.8489C81.488 42.7749 81.4025 42.7677 81.3387 42.7488C80.7486 42.5705 80.1527 42.4299 79.6162 42.4531ZM84.2297 47.6537C84.205 47.442 84.1427 47.2724 84.0093 47.126C83.4221 46.4779 82.9857 45.7428 82.7378 44.9004C82.7102 44.8076 82.6653 44.7221 82.5928 44.6626C82.5044 44.5916 82.4188 44.4408 82.2999 44.5046C82.168 44.5757 82.2347 44.7351 82.2622 44.8555C82.3855 45.3832 82.5942 45.8805 82.8741 46.3416C83.1887 46.8606 83.5671 47.3333 84.0369 47.7262C84.0804 47.7639 84.1297 47.8262 84.1891 47.7755C84.221 47.748 84.221 47.6842 84.2297 47.6537ZM83.931 41.9166C84.1645 41.9195 84.35 41.847 84.4588 41.6252C84.5603 41.4179 84.6879 41.2236 84.7792 41.0119C84.9459 40.6291 85.0837 40.2333 85.1808 39.8259C85.2301 39.62 85.0793 39.5432 84.9416 39.4881C84.7589 39.4141 84.7835 39.5983 84.7574 39.6853C84.6734 39.9723 84.6052 40.2623 84.495 40.5421C84.3326 40.9582 84.1108 41.341 83.86 41.7093C83.8266 41.7571 83.7831 41.8064 83.8063 41.8717C83.8281 41.934 83.8832 41.9282 83.9325 41.9181L83.931 41.9166ZM81.9201 41.0206C81.9273 40.8727 81.8998 40.7857 81.8505 40.7031C81.7504 40.5349 81.6576 40.3623 81.5518 40.1985C81.2981 39.8013 80.9806 39.4576 80.6311 39.1445C80.489 39.0169 80.3252 39.0734 80.2179 39.1851C80.099 39.3083 80.2614 39.3793 80.331 39.4446C80.8428 39.9303 81.2633 40.4769 81.559 41.1221C81.6069 41.225 81.6083 41.4338 81.7577 41.399C81.8635 41.3744 81.8838 41.1772 81.9186 41.0467C81.9244 41.022 81.923 40.9959 81.9215 41.0206H81.9201ZM79.4219 39.8056C79.435 39.8607 79.448 39.9187 79.4596 39.9781C79.5727 40.5653 79.8468 41.0815 80.1338 41.5962C80.2571 41.818 80.4296 41.9094 80.6703 41.9108C80.7123 41.9108 80.7602 41.934 80.7892 41.8949C80.8269 41.8441 80.7863 41.7977 80.7587 41.7571C80.2991 41.0887 79.9859 40.358 79.8163 39.5649C79.8004 39.4866 79.7569 39.4243 79.6771 39.4721C79.5524 39.5461 79.4379 39.6374 79.4219 39.8056ZM85.2475 44.3509C85.3243 44.3524 85.4012 44.3538 85.478 44.3524C85.9434 44.3524 86.3856 44.2277 86.8279 44.0986C87.0323 44.0392 87.0642 43.8536 87.0279 43.7086C86.9815 43.5202 86.8279 43.6651 86.738 43.6927C86.0536 43.8986 85.3562 43.9696 84.6444 43.9421C84.5414 43.9377 84.3906 43.8377 84.3428 43.9551C84.2891 44.0827 84.4559 44.1639 84.5327 44.2581C84.5951 44.3364 84.6922 44.3509 84.7879 44.3509C84.9416 44.3509 85.0938 44.3509 85.2475 44.3509ZM79.2697 44.3538C79.7337 44.3558 80.0381 44.277 80.1831 44.1175C80.2266 44.0697 80.3093 44.0276 80.2774 43.9522C80.2411 43.8681 80.1585 43.9203 80.0947 43.9247C79.9932 43.9305 79.8903 43.9377 79.7888 43.9435C79.1247 43.9783 78.4824 43.8667 77.8459 43.6898C77.7604 43.6666 77.6285 43.5926 77.585 43.742C77.5516 43.8594 77.5937 43.9812 77.6966 44.0624C77.7358 44.0928 77.788 44.1102 77.8358 44.1233C78.3215 44.2567 78.8072 44.3886 79.2683 44.3538H79.2697ZM81.9273 45.8776C81.9215 45.808 81.923 45.7819 81.9172 45.7573C81.8853 45.6341 81.8621 45.4659 81.7417 45.4412C81.6257 45.418 81.604 45.5949 81.5605 45.6862C81.3372 46.1604 81.0791 46.6142 80.7007 46.9781C80.5093 47.1622 80.4253 47.3797 80.36 47.6189C80.3412 47.6885 80.302 47.7813 80.3905 47.8263C80.4615 47.8625 80.5137 47.7871 80.5615 47.7422C80.94 47.3956 81.2894 47.0187 81.5692 46.5895C81.72 46.359 81.8925 46.127 81.9273 45.8791V45.8776Z" fill="#BBC4CD"/>
</g>
<defs>
<clipPath id="clip0_113_48">
<rect width="69.3687" height="50" fill="white" transform="translate(48.3157 25.5)"/>
</clipPath>
</defs>
</svg>
