<svg width="166" height="101" viewBox="0 0 166 101" fill="none" xmlns="http://www.w3.org/2000/svg">
<path fill-rule="evenodd" clip-rule="evenodd" d="M81.1835 22.948C75.1694 23.6258 69.9891 27.4954 67.5918 33.1004C66.7759 35.0082 66.3894 36.7984 66.3148 39.0165C66.2169 41.9226 66.7385 44.4328 67.9639 46.9549C70.3158 51.7951 74.7946 55.1467 80.2289 56.1331C81.348 56.3362 84.3796 56.3655 85.4913 56.1839C90.3492 55.3906 94.3969 52.7818 97.0639 48.7253C99.4155 45.1485 100.289 40.5378 99.4253 36.2657C98.0622 29.5262 92.7037 24.3152 85.8999 23.1128C84.6871 22.8986 82.3476 22.8168 81.1835 22.948ZM82.8129 24.7885V26.273L82.0184 26.3294C79.2173 26.5285 76.2826 27.7505 74.2706 29.5553L73.7637 30.0102L72.6989 28.9427L71.6343 27.8753L72.2072 27.3779C73.332 26.4012 74.4816 25.6138 75.626 25.0361C77.6024 24.0385 80.2449 23.3361 82.1092 23.3128L82.8129 23.304V24.7885ZM86.3147 23.6178C88.7971 24.129 91.2168 25.2632 93.2088 26.8492C93.5085 27.0877 93.8952 27.4302 94.068 27.6102L94.3825 27.9376L93.4796 28.8439C92.983 29.3423 92.5458 29.7501 92.508 29.7501C92.4701 29.7501 92.449 29.6583 92.4609 29.5461C92.4767 29.3972 92.429 29.3345 92.2842 29.3136C92.1447 29.2935 92.0673 29.1992 92.0232 28.9956C91.9599 28.7029 91.4451 28.1159 91.2516 28.1159C91.1939 28.1159 91.0701 28.0185 90.9765 27.8995C90.7359 27.5937 89.8139 27.4343 89.5886 27.6595C89.4303 27.8178 89.0948 27.7638 88.553 27.4931C87.4425 26.9381 85.8557 26.5174 84.2656 26.3565L83.2215 26.2508L83.1964 24.7634L83.1714 23.276L84.1951 23.3341C84.7582 23.366 85.712 23.4937 86.3147 23.6178ZM85.7909 24.1393C85.8756 24.224 85.9241 24.224 86.0088 24.1393C86.0936 24.0546 86.0694 24.0304 85.8999 24.0304C85.7304 24.0304 85.7062 24.0546 85.7909 24.1393ZM86.6392 24.4743C86.5644 24.5218 86.5514 24.5743 86.6063 24.6081C86.6558 24.6388 86.7469 24.6031 86.8086 24.5287C86.9312 24.3811 86.8351 24.3503 86.6392 24.4743ZM69.5006 24.8839C67.4614 25.7416 66.3943 26.6157 65.7211 27.9797C65.5979 28.2294 65.3459 28.9035 65.1611 29.4778C64.9762 30.052 64.8014 30.5797 64.7724 30.6503C64.7107 30.8006 66.114 29.6598 66.8181 28.9872C67.0846 28.7326 67.7643 27.8912 68.3288 27.1172C68.8933 26.3432 69.6084 25.4342 69.918 25.0971C70.2276 24.7601 70.4671 24.4872 70.4502 24.4908C70.4332 24.4944 70.006 24.6712 69.5006 24.8839ZM96.1208 25.1367C96.4682 25.5024 97.2353 26.4667 97.8255 27.2796C98.7988 28.6203 99.0042 28.8463 100.037 29.7116C100.664 30.2363 101.188 30.6537 101.202 30.6391C101.216 30.6245 101.029 30.0083 100.785 29.2698C100.275 27.7267 99.9562 27.1859 99.0885 26.3908C98.5152 25.8656 97.0582 25.0596 95.8924 24.6229L95.4891 24.4718L96.1208 25.1367ZM85.3097 24.7849C85.1599 24.8329 84.9761 24.8938 84.9011 24.9201C84.8262 24.9464 84.7241 24.9715 84.6742 24.9758C84.6242 24.9801 84.5834 25.0449 84.5834 25.1198C84.5834 25.284 84.9731 25.3566 85.1113 25.2183C85.1655 25.1641 85.3957 25.1186 85.623 25.1169C85.9805 25.1145 86.4607 24.9146 86.3472 24.8155C86.2464 24.7275 85.5526 24.7071 85.3097 24.7849ZM83.8694 25.1659C83.7263 25.2404 83.5527 25.3014 83.4835 25.3014C83.4143 25.3014 83.3576 25.3423 83.3576 25.3922C83.3576 25.4421 83.4336 25.483 83.5264 25.483C83.6193 25.483 83.9299 25.6082 84.2166 25.7613C84.7434 26.0424 84.9327 26.0576 84.7205 25.8019C84.6568 25.7251 84.5386 25.5326 84.4579 25.3739C84.2779 25.0203 84.2008 24.993 83.8694 25.1659ZM82.8129 28.021V29.3787L82.5178 29.4239C82.3555 29.4488 81.9634 29.4939 81.6464 29.5243C80.9597 29.5902 79.7606 29.9262 78.8887 30.2972C78.1662 30.6046 76.9239 31.3909 76.37 31.8913L75.9922 32.2326L75.0441 31.2877C74.5225 30.7679 74.1062 30.3173 74.119 30.2863C74.1316 30.2554 74.3872 30.0163 74.6868 29.7552C76.5316 28.1476 79.1425 27.031 81.6827 26.7634C82.9639 26.6285 82.8129 26.4604 82.8129 28.021ZM84.2577 26.7564C85.9891 26.9387 88.6237 27.7534 88.6237 28.1065C88.6237 28.1935 88.767 28.379 88.9421 28.5187C89.1718 28.7018 89.276 28.8692 89.316 29.1195C89.3465 29.3104 89.4281 29.4883 89.4972 29.5148C89.5713 29.5432 89.6195 29.6849 89.6149 29.8608C89.6048 30.2387 89.7127 30.6855 89.8328 30.7636C89.8838 30.7968 90.0187 30.7627 90.1326 30.688C90.406 30.5089 90.6821 30.6045 90.8929 30.9512L91.0614 31.2281L90.6903 31.624C90.4863 31.8418 90.2646 32.0199 90.1978 32.0199C90.0444 32.0199 90.0375 31.6855 90.1899 31.6319C90.382 31.5645 89.7777 30.8895 89.4951 30.8559C89.3412 30.8375 89.2211 30.7509 89.1725 30.6233C89.0551 30.3144 88.4406 29.8061 88.3246 29.9221C88.2583 29.9885 88.3048 30.0766 88.4788 30.2134C88.6688 30.3628 88.7153 30.4609 88.6742 30.6246C88.6352 30.7801 88.6585 30.8396 88.7582 30.8396C88.834 30.8396 88.8961 30.8959 88.8961 30.9647C88.8961 31.0335 88.9574 31.1406 89.0323 31.2028C89.1072 31.265 89.1685 31.35 89.1685 31.3919C89.1685 31.4337 88.9029 31.2986 88.5783 31.0917C88.2537 30.8848 87.9882 30.6821 87.9882 30.6413C87.9882 30.6006 88.0938 30.5672 88.2227 30.5672C88.3699 30.5672 88.4432 30.525 88.4196 30.4538C88.3769 30.3254 87.6962 30.2705 87.6226 30.3896C87.5963 30.4321 87.2134 30.3219 86.7719 30.1446C85.925 29.8047 84.5579 29.4818 83.9478 29.4777C83.2007 29.4727 83.1761 29.4474 83.1761 28.6873C83.1761 28.0964 83.2024 27.9862 83.3803 27.8329L83.5846 27.657L83.3803 27.5122C83.1154 27.3244 83.0915 26.6572 83.3501 26.6648C83.3793 26.6657 83.7876 26.7069 84.2577 26.7564ZM65.2882 27.0415C64.5212 27.4247 63.5845 28.3525 63.206 29.104C62.7132 30.0823 62.6371 30.6753 62.6715 33.2677C62.6882 34.5282 62.7083 35.5598 62.716 35.5602C62.7237 35.5604 62.8319 35.3871 62.9565 35.1748C63.3257 34.5458 63.8805 33.9764 65.0027 33.0746C66.2167 32.0991 66.8138 31.4924 67.3746 30.6644C67.8158 30.0129 68.1906 29.0529 68.1923 28.5699L68.1933 28.2521L67.9279 28.7149C67.6203 29.2511 67.0181 29.8167 65.98 30.5445C64.7599 31.4 63.7936 32.4334 63.477 33.2214C63.2717 33.7324 63.4108 33.1322 63.6544 32.4559C63.8036 32.0413 64.069 31.051 64.244 30.255C64.6103 28.5886 64.9173 27.8581 65.5231 27.2105C65.7579 26.9594 65.9305 26.7541 65.9067 26.7541C65.8828 26.7541 65.6045 26.8833 65.2882 27.0415ZM100.469 27.1543C101.133 27.8182 101.438 28.558 101.839 30.4694C101.968 31.0897 102.194 31.9248 102.34 32.3253C102.678 33.2506 102.673 33.3596 102.321 32.7916C101.802 31.9561 101.423 31.5737 100.218 30.6693C98.9116 29.6894 98.2828 29.0862 97.9816 28.5245L97.787 28.1613L97.8419 28.596C97.9222 29.2311 98.187 29.9358 98.5712 30.5375C98.9806 31.1787 100.077 32.3249 100.881 32.9519C101.792 33.663 102.593 34.4638 102.978 35.0495L103.328 35.5824L103.309 34.8225C103.298 34.4046 103.323 33.4498 103.364 32.7008C103.455 31.0347 103.322 30.1303 102.843 29.1625C102.36 28.1871 101.431 27.3225 100.406 26.8946L100.068 26.7533L100.469 27.1543ZM90.5709 27.2159C90.4996 27.3312 90.5494 27.3812 91.0071 27.6549C91.4037 27.8919 91.4733 27.7555 91.1593 27.3565C90.9657 27.1102 90.6786 27.0417 90.5709 27.2159ZM85.7699 27.5613C85.7177 27.6457 86.0967 27.9343 86.2599 27.9343C86.4202 27.9343 86.3635 27.7698 86.152 27.6217C85.921 27.4599 85.8403 27.4472 85.7699 27.5613ZM85.1735 27.6447C85.1735 27.6935 85.2383 27.7581 85.3174 27.7885C85.4057 27.8224 85.4473 27.8021 85.4251 27.7358C85.3799 27.6 85.1735 27.5253 85.1735 27.6447ZM81.1328 28.1165C81.0761 28.2082 81.1397 28.2428 81.5191 28.3263C81.764 28.3802 81.7807 28.3157 81.5645 28.1515C81.3728 28.0061 81.2093 27.9928 81.1328 28.1165ZM72.9938 30.832C72.4008 31.4931 71.5407 32.7784 71.0851 33.6844C70.338 35.1704 69.7385 37.4477 69.7385 38.7997V39.3739H68.195C67.3461 39.3739 66.6517 39.3432 66.6517 39.3058C66.6519 39.2684 66.6955 38.7679 66.7485 38.1936C67.0654 34.7637 68.4286 31.534 70.652 28.9455L71.3041 28.1862L72.3764 29.2556L73.4487 30.3251L72.9938 30.832ZM85.5367 28.2975C85.5367 28.3474 85.5776 28.3883 85.6275 28.3883C85.6774 28.3883 85.7183 28.3474 85.7183 28.2975C85.7183 28.2476 85.6774 28.2067 85.6275 28.2067C85.5776 28.2067 85.5367 28.2476 85.5367 28.2975ZM95.3413 28.9103C96.4042 30.0774 97.5738 32.0025 98.2419 33.6845C98.7931 35.0716 99.2021 36.9183 99.3061 38.4887L99.3648 39.3739H97.8693H96.3738L96.2632 38.2996C96.1363 37.069 95.8294 35.7739 95.418 34.7327C95.1437 34.0384 95.1394 34.0076 95.3024 33.8884C95.4461 33.7834 95.4551 33.7326 95.3622 33.5506C95.1605 33.1553 94.6131 32.4323 94.1689 31.9745C93.9267 31.7248 93.7014 31.4307 93.6683 31.3209C93.6352 31.2111 93.5342 31.0978 93.4439 31.0691C93.2725 31.0147 92.7095 30.4416 92.7095 30.3215C92.7095 30.2354 94.6353 28.2975 94.7208 28.2975C94.7552 28.2975 95.0344 28.5733 95.3413 28.9103ZM86.4181 29.2044C86.444 29.3036 86.6139 29.4737 86.7955 29.5822C86.9771 29.6908 87.2175 29.8617 87.3299 29.9622C87.4449 30.0651 87.5342 30.0979 87.5342 30.0375C87.5342 29.9783 87.4453 29.8588 87.3367 29.7719C87.2281 29.685 87.0424 29.522 86.924 29.4097C86.8057 29.2974 86.6698 29.2054 86.6222 29.2054C86.5745 29.2054 86.5354 29.1645 86.5354 29.1146C86.5354 29.0647 86.4984 29.0238 86.4532 29.0238C86.4079 29.0238 86.3921 29.1051 86.4181 29.2044ZM77.002 29.2054C77.002 29.2553 77.0453 29.2962 77.0982 29.2962C77.151 29.2962 77.1691 29.2553 77.1382 29.2054C77.1074 29.1555 77.0641 29.1146 77.0421 29.1146C77.02 29.1146 77.002 29.1555 77.002 29.2054ZM61.8605 30.5481C60.8494 32.0536 60.4447 33.3064 60.4464 34.9252C60.4476 36.108 60.6078 36.8457 61.2132 38.4555C61.6121 39.5163 61.9302 40.6441 61.9302 40.9979C61.9302 41.3087 62.0556 41.1432 62.1976 40.6449C62.402 39.9285 62.9744 38.9149 64.0177 37.4219C65.1869 35.7488 65.7513 34.6567 66.0122 33.5633C66.248 32.5748 66.2458 32.5562 65.9478 32.9999C65.8104 33.2043 65.2374 33.8073 64.6744 34.3398C63.0395 35.8862 62.4158 36.8383 62.2001 38.1176C62.1414 38.4655 62.0725 38.7294 62.047 38.7039C62.0216 38.6784 62.0507 38.0204 62.1117 37.2416C62.1727 36.4628 62.196 35.5923 62.1637 35.3073C62.1313 35.0222 62.0399 34.2583 61.9606 33.6097C61.7804 32.1366 61.8327 31.2445 62.1444 30.473C62.2727 30.1551 62.3672 29.8845 62.3543 29.8715C62.3413 29.8585 62.1191 30.163 61.8605 30.5481ZM82.8129 31.3233V32.8056L82.0876 32.9166C80.869 33.1032 79.8259 33.5428 78.852 34.2804L78.3867 34.6328L77.326 33.5695L76.2654 32.5062L76.9742 31.9434C78.4643 30.7603 80.744 29.8846 82.427 29.8491L82.8129 29.8409V31.3233ZM85.3646 30.1256C86.8259 30.4936 88.3169 31.2684 89.35 32.1967L89.7585 32.5638L88.7112 33.6111L87.6638 34.6583L87.1279 34.2422C86.1825 33.5081 84.9851 33.032 83.6981 32.8784L83.1761 32.8161V31.3154V29.8148L83.8892 29.8742C84.2814 29.907 84.9453 30.0201 85.3646 30.1256ZM103.857 30.363C104.181 31.0627 104.233 32.3376 104.011 34.13C103.885 35.1402 103.865 35.7332 103.914 36.8993C103.949 37.7154 104 38.4427 104.027 38.5154C104.055 38.5881 104.041 38.6476 103.996 38.6476C103.951 38.6476 103.864 38.3557 103.803 37.9989C103.596 36.7922 102.849 35.6874 101.236 34.2047C100.778 33.7834 100.282 33.2727 100.133 33.0698L99.8628 32.7008L99.9288 33.1094C100.139 34.411 100.66 35.4823 102.025 37.4219C103.008 38.8192 103.817 40.3194 103.933 40.9627C103.998 41.3243 103.999 41.3229 104.158 40.5996C104.245 40.2001 104.54 39.24 104.813 38.466C105.512 36.4809 105.635 35.8614 105.578 34.6212C105.522 33.4294 105.366 32.7954 104.87 31.7541C104.556 31.0936 103.757 29.8409 103.651 29.8409C103.631 29.8409 103.724 30.0759 103.857 30.363ZM74.7251 31.6042L75.6681 32.5504L75.2847 32.9859C73.998 34.4476 73.1611 36.3736 72.909 38.4526L72.7974 39.3739H71.4364H70.0755L70.1363 38.6455C70.3702 35.8411 71.4875 33.1856 73.3125 31.0962C73.5191 30.8597 73.7092 30.6644 73.7351 30.6621C73.761 30.6598 74.2064 31.0838 74.7251 31.6042ZM91.5886 32.4057C91.6758 32.1928 91.8965 32.2905 91.9517 32.5665C91.9995 32.8059 92.094 32.9356 92.2555 32.984C92.5896 33.0841 92.7047 33.1477 92.7457 33.2545C92.7726 33.3244 92.8765 33.3817 92.9768 33.3817C93.077 33.3817 93.2928 33.5326 93.4563 33.717C94.3928 34.7734 94.2999 34.7019 94.575 34.5765C94.8931 34.4316 94.8933 34.4319 95.2883 35.6515C95.6375 36.7294 95.8873 38.0612 95.8873 38.8451V39.3739H94.5378H93.1883L93.1387 38.5341C93.1115 38.0721 93.1012 37.5002 93.1158 37.263C93.1387 36.8918 93.1186 36.8318 92.9713 36.8318C92.8097 36.8318 92.7618 36.7426 92.7919 36.4981C92.7992 36.4395 92.7631 36.3656 92.7119 36.3339C92.6606 36.3022 92.6187 36.1834 92.6187 36.0699C92.6187 35.9563 92.5899 35.8345 92.5548 35.7994C92.5195 35.7642 92.4766 35.6246 92.4593 35.4892C92.442 35.3537 92.353 35.1817 92.2615 35.1068C92.0088 34.8998 91.8676 34.5854 92.0065 34.5388C92.0942 34.5094 92.0907 34.4472 91.9911 34.2602C91.8989 34.0873 91.8318 34.0451 91.7529 34.1108C91.6305 34.2123 91.3476 33.8621 91.3476 33.6091C91.3476 33.5308 91.2863 33.4433 91.2114 33.4146C91.1365 33.3858 91.0752 33.3229 91.0752 33.2748C91.0752 33.1578 90.8399 32.9278 90.7202 32.9278C90.6677 32.9278 90.5983 32.823 90.5662 32.6949C90.521 32.5146 90.5664 32.4007 90.7674 32.191L91.027 31.92L91.2845 32.2196C91.4509 32.4131 91.5586 32.479 91.5886 32.4057ZM80.089 32.383C80.089 32.433 80.1324 32.4738 80.1852 32.4738C80.238 32.4738 80.2561 32.433 80.2252 32.383C80.1944 32.3331 80.1511 32.2923 80.1291 32.2923C80.107 32.2923 80.089 32.3331 80.089 32.383ZM79.7259 32.4738C79.7259 32.5238 79.7896 32.5646 79.8674 32.5646C79.9452 32.5646 79.9837 32.5238 79.9529 32.4738C79.922 32.4239 79.8583 32.383 79.8113 32.383C79.7643 32.383 79.7259 32.4239 79.7259 32.4738ZM77.7244 35.395C77.5315 35.639 77.2834 35.9993 77.173 36.1957C77.055 36.4057 76.8382 36.618 76.6467 36.7108C76.4005 36.8302 76.3611 36.8772 76.485 36.9033C76.7823 36.9659 76.5882 37.1433 76.0012 37.3454C75.4606 37.5316 75.4069 37.5758 75.1727 38.0279C75.035 38.2938 74.9204 38.6238 74.918 38.7611C74.9157 38.8983 74.8776 39.0107 74.8336 39.0107C74.7895 39.0107 74.732 39.0924 74.7058 39.1923C74.6635 39.3542 74.582 39.3739 73.956 39.3739H73.2535L73.3029 38.6703C73.4301 36.8585 74.1831 35.038 75.4842 33.3969L75.9401 32.8219L77.0076 33.8866L78.0751 34.9513L77.7244 35.395ZM90.4128 33.2614C90.4424 33.3385 90.5677 33.5095 90.6912 33.6413C90.9543 33.9223 91.5291 34.7555 91.5291 34.8559C91.5291 34.8939 91.4726 34.9252 91.4036 34.9252C91.3345 34.9252 91.2527 34.9966 91.2219 35.0841C91.191 35.1715 91.1428 35.2917 91.1147 35.3512C91.0822 35.4201 91.1856 35.4823 91.3988 35.5224C91.6159 35.5632 91.7498 35.645 91.7785 35.7546C91.8028 35.8477 91.8558 35.9239 91.8962 35.9239C92.1509 35.9239 92.724 37.8058 92.5761 38.1566C92.4429 38.4724 92.4804 38.7864 92.6477 38.7571C92.7669 38.7363 92.8003 38.8007 92.8003 39.0521V39.3739H91.8015C90.8146 39.3739 90.607 39.3034 90.9899 39.0985C91.0928 39.0435 91.1596 38.9502 91.1384 38.8911C91.054 38.6567 91.2606 38.466 91.6004 38.4643C91.88 38.463 91.9874 38.4029 92.2275 38.1135C92.4284 37.8717 92.5017 37.7048 92.4666 37.5704C92.3871 37.2661 92.2115 37.3418 92.0213 37.7624C91.8984 38.0343 91.7835 38.1572 91.6322 38.1786C91.3798 38.2143 91.1523 38.0419 91.3173 37.9399C91.4827 37.8377 91.5677 37.2145 91.4375 37.0577C91.2671 36.8524 90.9156 36.8959 90.695 37.1495C90.5865 37.2744 90.4598 37.3765 90.4134 37.3765C90.3671 37.3765 90.3548 37.2744 90.3861 37.1495C90.4327 36.9638 90.4099 36.9226 90.2606 36.9226C90.1519 36.9226 89.9952 36.7945 89.873 36.6059C89.7153 36.3626 89.5581 36.257 89.194 36.1502C88.7903 36.0318 88.6855 35.9521 88.4863 35.6121C88.3576 35.3926 88.1904 35.1616 88.1147 35.0988C87.9966 35.0007 88.1217 34.8395 88.9972 33.9614C89.8684 33.0878 90.0424 32.9518 90.1883 33.0298C90.2822 33.0801 90.3833 33.1843 90.4128 33.2614ZM91.7107 33.2404C91.7107 33.3926 92.0518 33.6541 92.2505 33.6541C92.3357 33.6541 92.2748 33.5519 92.0885 33.3817C91.7497 33.0722 91.7107 33.0577 91.7107 33.2404ZM82.8129 34.6408V35.9908L82.4724 36.0392C82.2852 36.0658 82.0605 36.1163 81.973 36.1516C81.8611 36.1968 81.8141 36.1726 81.8141 36.0698C81.8141 35.8637 81.7322 35.888 81.5208 36.1568C81.42 36.2849 81.1737 36.4932 80.9735 36.6197L80.6093 36.8495L79.6632 35.9101L78.7171 34.9706L79.1046 34.6234C79.8379 33.9662 81.465 33.3174 82.427 33.2985L82.8129 33.2909V34.6408ZM84.6281 33.4784C85.0003 33.5816 85.6123 33.827 85.9882 34.0238C86.7543 34.4249 87.4939 35.007 87.2445 35.0125C87.16 35.0144 87.066 34.9756 87.0355 34.9262C87.0014 34.8711 86.8944 34.8925 86.7584 34.9815C86.5326 35.1294 86.5309 35.3192 86.7562 35.2328C87.0242 35.1299 86.9649 35.366 86.6452 35.6748C86.2624 36.0446 85.938 36.1514 85.9579 35.9012C85.9648 35.8137 85.9342 35.7423 85.8898 35.7423C85.8454 35.7423 85.8091 35.7831 85.8091 35.8331C85.8091 35.883 85.7525 35.9239 85.6835 35.9239C85.542 35.9239 85.4329 36.2383 85.5072 36.4319C85.5342 36.502 85.595 36.5594 85.6426 36.5594C85.6901 36.5594 85.7038 36.6002 85.6729 36.6502C85.5839 36.7942 85.34 36.7575 84.9248 36.5376C84.6441 36.389 84.5518 36.2904 84.5843 36.1742C84.6087 36.0865 84.6519 35.9329 84.6802 35.8331C84.7575 35.5609 84.4124 35.597 84.1861 35.8847C84.0184 36.0978 83.9688 36.1113 83.612 36.0409L83.2215 35.9637L83.1963 34.6274L83.1712 33.2909H83.5613C83.7759 33.2909 84.256 33.3753 84.6281 33.4784ZM92.0902 34.0096C92.1552 34.1137 92.2571 34.1988 92.3167 34.1988C92.3763 34.1988 92.438 34.3081 92.4538 34.4415C92.4836 34.6932 92.7095 34.8583 92.7095 34.6284C92.7095 34.4226 92.3112 33.8855 92.1332 33.8513C91.9913 33.824 91.9861 33.843 92.0902 34.0096ZM90.4212 34.2708C90.3361 34.2875 90.2415 34.3804 90.2108 34.477C90.1801 34.5737 90.0914 34.6528 90.0138 34.6528C89.9092 34.6528 89.8977 34.6829 89.9694 34.7694C90.0226 34.8335 90.0511 34.9663 90.0328 35.0644C90.0145 35.1626 89.9964 35.2736 89.9926 35.311C89.9887 35.3484 89.9243 35.3791 89.8494 35.3791C89.7745 35.3791 89.7133 35.4404 89.7133 35.5153C89.7133 35.6061 89.804 35.6515 89.9856 35.6515C90.1354 35.6515 90.258 35.6106 90.258 35.5607C90.258 35.5108 90.383 35.4699 90.5358 35.4699C90.7007 35.4699 90.7903 35.4325 90.7565 35.3777C90.7251 35.3269 90.6651 35.3066 90.6231 35.3325C90.5307 35.3897 90.258 35.2943 90.258 35.205C90.258 35.1698 90.3423 35.0506 90.4452 34.9401C90.6763 34.692 90.6595 34.2237 90.4212 34.2708ZM92.728 35.1299C92.6097 35.2724 92.6721 35.574 92.9066 35.9947C92.9979 36.1586 93.0726 36.3706 93.0726 36.466C93.0726 36.5614 93.1154 36.6659 93.1676 36.6981C93.2829 36.7694 93.1831 35.8335 93.0614 35.7014C93.0176 35.654 92.9812 35.5315 92.9805 35.4291C92.9782 35.1315 92.8514 34.9812 92.728 35.1299ZM79.2255 36.1044L80.0378 36.9205L79.569 36.8877C79.2114 36.8626 79.015 36.7874 78.7417 36.5709C78.3186 36.2358 77.9614 36.2071 77.6661 36.4844C77.3866 36.7471 77.3999 36.5953 77.6957 36.1492C77.8817 35.8686 78.3601 35.2883 78.4055 35.2883C78.4097 35.2883 78.7787 35.6556 79.2255 36.1044ZM84.9011 35.3791C84.9011 35.4291 84.942 35.4699 84.9919 35.4699C85.0419 35.4699 85.0827 35.4291 85.0827 35.3791C85.0827 35.3292 85.0419 35.2883 84.9919 35.2883C84.942 35.2883 84.9011 35.3292 84.9011 35.3791ZM85.3551 35.3791C85.2387 35.4543 85.242 35.4674 85.3778 35.4685C85.4652 35.4693 85.5367 35.4291 85.5367 35.3791C85.5367 35.2684 85.5264 35.2684 85.3551 35.3791ZM85.7183 35.3196C85.7183 35.4248 86.1807 35.6426 86.3037 35.5954C86.5741 35.4916 86.4469 35.3239 86.0815 35.3024C85.8817 35.2906 85.7183 35.2983 85.7183 35.3196ZM81.9968 35.6494C81.9186 35.7958 81.9263 35.8192 82.0385 35.7761C82.1143 35.747 82.1558 35.6902 82.1308 35.6498C82.1059 35.6093 82.1367 35.5555 82.1995 35.5302C82.2848 35.4958 82.2857 35.4824 82.2032 35.4771C82.1425 35.4732 82.0497 35.5507 81.9968 35.6494ZM87.9882 35.6969C88.085 35.8136 88.0546 35.8331 87.7743 35.8331C87.5254 35.8331 87.4119 35.8875 87.2978 36.0616C87.1783 36.2441 87.1222 36.2687 87.0198 36.1838C86.912 36.0943 86.931 36.0362 87.139 35.819C87.4132 35.5328 87.8052 35.4764 87.9882 35.6969ZM89.1515 35.8951C89.217 35.9213 89.2953 35.918 89.3255 35.8879C89.3556 35.8578 89.302 35.8363 89.2063 35.8402C89.1006 35.8446 89.0791 35.8661 89.1515 35.8951ZM88.3118 36.1735C88.3419 36.3108 88.384 36.4789 88.4054 36.5468C88.4336 36.6367 88.385 36.6555 88.2265 36.6158C88.0545 36.5726 87.9962 36.6038 87.9485 36.7646C87.891 36.958 87.8807 36.9532 87.7374 36.6673C87.6383 36.4696 87.6189 36.3453 87.6806 36.3042C87.7322 36.2698 87.8008 36.1702 87.8331 36.0827C87.9283 35.8244 88.2486 35.8852 88.3118 36.1735ZM106.133 36.7362C106.177 37.7055 105.939 38.5925 105.162 40.3557C104.404 42.0743 104.278 42.4368 104.051 43.5502C103.876 44.4026 103.613 45.3139 103.558 45.2583C103.542 45.2426 103.587 45.0062 103.658 44.7333C104.045 43.242 103.621 41.5668 102.307 39.3899C101.955 38.8068 101.574 38.0642 101.461 37.7397L101.255 37.1495L101.249 37.9212C101.244 38.7024 101.498 40.5095 101.754 41.5075C101.831 41.8071 102.103 42.7263 102.359 43.5502C102.818 45.0291 102.824 45.0636 102.828 46.2512C102.83 46.9129 102.839 47.4542 102.847 47.4542C102.856 47.4542 102.984 47.2602 103.132 47.023C103.28 46.7857 103.869 46.0112 104.442 45.3017C105.609 43.8547 105.958 43.2663 106.233 42.2785C106.742 40.4554 106.82 38.81 106.469 37.2637C106.182 35.9995 106.093 35.8599 106.133 36.7362ZM59.6694 36.8185C59.2652 38.3164 59.2311 39.3928 59.5344 41.0875C59.8577 42.8948 60.2873 43.7469 61.7835 45.5476C62.2193 46.0719 62.7062 46.7143 62.8658 46.975C63.0253 47.2358 63.1763 47.4503 63.2013 47.4518C63.2263 47.4532 63.2342 46.954 63.219 46.3421L63.1914 45.2298L63.7443 43.3686C64.394 41.1822 64.7388 39.4442 64.7983 38.0574L64.841 37.0587L64.5795 37.7612C64.4357 38.1475 64.1679 38.6898 63.9844 38.9662C63.4684 39.7433 62.7874 41.0818 62.5759 41.7344C62.226 42.8143 62.1738 44.051 62.4359 45.0483C62.4786 45.2107 62.4732 45.2133 62.385 45.0729C62.3308 44.9865 62.1666 44.3674 62.0201 43.6971C61.7313 42.3764 61.5571 41.8693 60.8525 40.3004C60.1304 38.6925 59.9153 37.9294 59.907 36.9452C59.903 36.4833 59.8912 36.1054 59.8808 36.1054C59.8703 36.1054 59.7752 36.4263 59.6694 36.8185ZM82.9945 36.5692C82.9945 36.7281 82.9559 36.751 82.7675 36.7037C82.587 36.6584 82.5405 36.681 82.5405 36.8137C82.5405 37.0457 82.9057 37.3396 83.2814 37.4101C83.4652 37.4446 83.7198 37.5967 83.8931 37.7755L84.19 38.0818L83.9967 38.2172C83.8426 38.3252 83.8304 38.3629 83.9364 38.4036C84.0128 38.433 84.1287 38.3703 84.2088 38.2561C84.3205 38.0971 84.3651 38.0821 84.432 38.181C84.478 38.2489 84.4968 38.3771 84.4735 38.4658C84.4504 38.5545 84.473 38.6528 84.5239 38.6842C84.654 38.7647 84.4161 39.1961 84.1562 39.3513C83.9544 39.4718 83.9569 39.4742 84.2354 39.4285C84.4927 39.3864 84.5332 39.411 84.6212 39.6636C84.6753 39.8188 84.7196 40.043 84.7196 40.162C84.7196 40.281 84.7806 40.4017 84.8551 40.4303C84.997 40.4847 84.978 40.7206 84.7919 41.2124C84.7076 41.4355 84.6526 41.4621 84.2741 41.4621C83.9031 41.4621 83.8315 41.4947 83.695 41.7257C83.6093 41.8708 83.5392 42.0751 83.5392 42.1797C83.5392 42.2843 83.5012 42.37 83.4548 42.37C83.4083 42.37 83.3572 42.4618 83.3413 42.5742C83.3146 42.7619 83.2669 42.7779 82.7523 42.7702C82.1772 42.7616 81.3364 42.4425 81.0822 42.1364C80.9042 41.9218 81.1591 41.7322 81.6653 41.7029C82.1198 41.6765 82.4497 41.4735 82.4497 41.2205C82.4497 41.1365 82.5161 40.9944 82.5972 40.9048C82.8863 40.5854 82.6965 40.0094 82.3022 40.0094C82.2401 40.0094 82.1764 39.897 82.1606 39.7597C82.14 39.5802 82.0809 39.5101 81.9503 39.5101C81.8198 39.5101 81.7607 39.5802 81.7401 39.7597C81.7243 39.897 81.6731 40.0094 81.6266 40.0094C81.5799 40.0094 81.5418 40.1038 81.5418 40.2192C81.5418 40.4189 81.2478 40.8265 81.1039 40.8265C80.9944 40.8265 80.7246 41.3372 80.7246 41.5441C80.7246 41.8153 80.6198 41.7793 80.3787 41.4252C80.1517 41.0918 80.0216 40.5018 80.1992 40.6115C80.2671 40.6535 80.2811 40.6215 80.2407 40.5162C80.2072 40.429 80.1798 40.323 80.1798 40.2805C80.1798 40.238 80.0981 40.1773 79.9983 40.1456C79.8569 40.1008 79.8167 40.0082 79.8167 39.7277C79.8167 39.4065 79.8346 39.3772 79.9833 39.4566C80.1057 39.5221 80.1391 39.6192 80.1091 39.823C80.0666 40.1123 80.2101 40.2074 80.3071 39.9544C80.3479 39.8482 80.4277 39.8247 80.601 39.8683C80.8071 39.92 80.8327 39.9036 80.7914 39.7459C80.7587 39.621 80.8112 39.5196 80.9582 39.4233C81.0763 39.346 81.1526 39.2303 81.128 39.1662C81.1035 39.1022 81.1661 38.961 81.2671 38.8525C81.5032 38.5992 81.5042 38.4308 81.2694 38.4923C81.1695 38.5184 81.0878 38.5028 81.0878 38.4574C81.0878 38.4122 81.1242 38.3752 81.1688 38.3752C81.2133 38.3752 81.2728 38.2833 81.3012 38.1709C81.3372 38.0276 81.4688 37.9307 81.7422 37.846C81.9566 37.7797 82.2034 37.661 82.2908 37.5822C82.4602 37.4297 82.5144 36.8318 82.3589 36.8318C82.1681 36.8318 82.2703 36.4808 82.4724 36.4419C82.9157 36.3565 82.9945 36.3757 82.9945 36.5692ZM76.2303 38.9653V39.3285H75.7763C75.3461 39.3285 75.3208 39.3151 75.2931 39.0734C75.2498 38.6958 75.4233 38.5431 75.8593 38.5749C76.227 38.6019 76.2303 38.6053 76.2303 38.9653ZM81.4994 38.9151C81.4669 38.9677 81.4644 39.0498 81.4939 39.0975C81.5234 39.1453 81.4436 39.2524 81.3167 39.3356C81.1897 39.4188 81.0187 39.6283 80.9367 39.8011C80.8546 39.9739 80.6889 40.1528 80.5684 40.1986C80.3981 40.2634 80.3558 40.3372 80.3781 40.5307C80.4241 40.9293 80.685 40.897 80.9051 40.4655C81.0097 40.2605 81.1956 40.0547 81.3185 40.008C81.4727 39.9494 81.5418 39.8535 81.5418 39.6984C81.5418 39.5748 81.6068 39.4373 81.6861 39.3929C81.7714 39.3452 81.8179 39.2254 81.7996 39.1004C81.7659 38.8695 81.5934 38.763 81.4994 38.9151ZM92.1647 39.0107C92.1647 39.0607 92.208 39.1015 92.2609 39.1015C92.3137 39.1015 92.3318 39.0607 92.3009 39.0107C92.27 38.9608 92.2268 38.9199 92.2047 38.9199C92.1827 38.9199 92.1647 38.9608 92.1647 39.0107ZM91.4383 39.2003C91.4383 39.2459 91.5269 39.2831 91.6351 39.2831C91.7432 39.2831 91.8033 39.2547 91.7687 39.2199C91.6705 39.1219 91.4383 39.1081 91.4383 39.2003ZM69.7689 40.7584C69.8179 41.5484 70.0087 42.6208 70.2452 43.4367C70.2951 43.6088 70.2696 43.641 70.084 43.641C69.9627 43.641 69.7774 43.5608 69.6721 43.4627C69.4944 43.2972 69.4609 43.2944 69.2029 43.4231C69.05 43.4994 68.9013 43.6 68.8724 43.6467C68.7905 43.7792 68.649 43.7468 68.649 43.5956C68.649 43.5207 68.7127 43.4594 68.7905 43.4594C68.8683 43.4594 68.9068 43.4186 68.8759 43.3686C68.8032 43.251 68.3228 43.2516 68.1021 43.3697C67.7452 43.5608 67.7282 44.6496 68.0698 45.4341C68.2733 45.9016 68.4946 45.9551 68.4515 45.5263C68.4132 45.1457 68.664 45.0753 68.8807 45.4059C69.0534 45.6694 69.2388 45.707 69.3201 45.4951C69.3645 45.3794 69.4203 45.4056 69.6103 45.6313C69.7396 45.785 69.8987 45.9108 69.9638 45.9108C70.0289 45.9108 70.1057 45.9721 70.1345 46.047C70.1632 46.1219 70.2514 46.1831 70.3305 46.1831C70.4095 46.1831 70.5299 46.3168 70.5981 46.48C70.7611 46.8701 71.0526 47.1288 71.2456 47.0547C71.3519 47.014 71.4913 47.106 71.71 47.3615C71.8822 47.5628 72.1043 47.7266 72.2047 47.7266C72.386 47.7266 73.3644 48.682 73.3683 48.8629C73.3694 48.9137 72.9063 49.4178 72.3392 49.9833L71.3081 51.0114L70.773 50.4062C68.9559 48.3512 67.5709 45.5755 67.017 42.8791C66.8854 42.2382 66.6538 40.3472 66.6517 39.8959C66.6517 39.8585 67.3399 39.8278 68.1813 39.8278H69.7112L69.7689 40.7584ZM72.8255 39.9967C72.8255 40.0897 72.8515 40.3552 72.8832 40.5868C72.93 40.9283 72.9148 41.0081 72.8033 41.0081C72.7274 41.0081 72.5504 41.1614 72.4098 41.3486C72.2692 41.5359 72.1275 41.7095 72.0949 41.7344C71.9304 41.8604 71.8268 42.2281 71.8268 42.6861C71.8268 43.1206 71.7913 43.2286 71.5865 43.4184C71.4316 43.5619 71.239 43.641 71.0443 43.641C70.7579 43.641 70.735 43.6162 70.6032 43.1625C70.3966 42.4519 70.2055 41.386 70.1366 40.5597L70.0755 39.8278H71.4505C72.7306 39.8278 72.8255 39.8395 72.8255 39.9967ZM74.3377 39.9939C74.2551 40.0852 74.1874 40.2258 74.1874 40.3063C74.1874 40.3867 74.142 40.4807 74.0866 40.5149C74.0271 40.5517 74.0065 40.7049 74.0363 40.8887C74.1201 41.405 73.9582 41.609 73.6831 41.334C73.6128 41.2635 73.505 41.1892 73.4439 41.1688C73.3748 41.1458 73.3187 40.8847 73.2958 40.4798L73.2589 39.8278H73.8734C74.463 39.8278 74.4819 39.8346 74.3377 39.9939ZM76.2327 40.0171C76.2742 40.148 76.2288 40.2746 76.0857 40.4269C75.9259 40.597 75.9032 40.672 75.9863 40.7551C76.1172 40.8859 76.1299 41.0409 76.0033 40.9627C75.9534 40.9318 75.9125 40.9475 75.9125 40.9974C75.9125 41.1716 76.1225 41.2163 76.2327 41.0655C76.3276 40.9358 76.3785 41.0236 76.5793 41.6644C76.8272 42.4549 77.3064 43.3427 77.7905 43.9083L78.0796 44.246L77.0085 45.3142L75.9375 46.3824L75.7473 46.1154C75.6129 45.9267 75.5856 45.8201 75.6538 45.7518C75.762 45.6437 75.6107 45.0589 75.4132 44.8213C75.27 44.6489 75.1822 43.8628 75.2938 43.7512C75.4121 43.6329 75.2833 43.1871 75.1309 43.1871C75.0427 43.1871 75.0046 43.0701 75.0046 42.8C75.0046 42.5039 74.9256 42.2959 74.6685 41.9148C74.4197 41.5458 74.3259 41.3049 74.3065 40.9854C74.2849 40.6273 74.3073 40.5537 74.4383 40.5513C74.6621 40.5472 74.9437 40.3129 74.8695 40.1927C74.7098 39.9343 74.9055 39.8278 75.5403 39.8278C76.1015 39.8278 76.1794 39.8492 76.2327 40.0171ZM79.4368 40.0364C79.4555 40.1326 79.3825 40.2053 79.2283 40.244C78.9144 40.3228 78.8561 40.2469 79.0601 40.0251C79.2508 39.8176 79.3952 39.8219 79.4368 40.0364ZM92.8003 40.0029C92.8003 40.4412 92.5854 41.6472 92.3828 42.3464C92.0213 43.5936 91.2288 45.0534 90.4391 45.9266C90.1962 46.1952 90.0827 46.2709 90.0802 46.1663C90.0781 46.0822 90.0292 45.8983 89.9715 45.7578C89.9137 45.6172 89.8754 45.4308 89.8864 45.3433C89.9145 45.1189 89.6606 45.1447 89.4935 45.3833C89.2678 45.7055 89.226 45.5055 89.3911 44.8934C89.4759 44.5791 89.532 44.1381 89.5158 43.9134C89.4878 43.5265 89.4718 43.5048 89.2139 43.5048C88.9843 43.5048 88.937 43.544 88.9128 43.7545C88.897 43.8918 88.851 44.0042 88.8107 44.0042C88.7703 44.0042 88.6096 44.0297 88.4535 44.0609C88.1116 44.1293 88.0564 43.9453 88.3935 43.8607C88.5165 43.8298 88.6399 43.7331 88.6676 43.6457C88.6954 43.5584 88.8178 43.4415 88.9399 43.3859C89.0639 43.3294 89.2533 43.0931 89.3694 42.8501C89.5553 42.461 89.6118 42.4124 89.9083 42.3878C90.1559 42.3671 90.252 42.3118 90.2895 42.1685C90.3302 42.0131 90.3644 41.9975 90.4709 42.0859C90.5746 42.1719 90.7043 42.1561 91.0883 42.0101C91.3557 41.9085 91.6461 41.8253 91.7334 41.8253C92.0983 41.8251 91.7628 41.3427 91.2455 41.1234C91.0752 41.0512 90.99 40.9306 90.9468 40.7001C90.9136 40.5229 90.7822 40.2542 90.6549 40.1028L90.4234 39.8278H91.6119C92.7249 39.8278 92.8003 39.8389 92.8003 40.0029ZM95.8873 40.3566C95.8873 41.5971 95.3834 43.5943 94.6935 45.0881C94.0955 46.383 92.4426 48.6764 92.2479 48.4815C92.2072 48.4408 92.1412 48.1463 92.1012 47.8271C92.0257 47.2244 91.8703 47.0104 91.5869 47.1191C91.5052 47.1505 91.4383 47.2591 91.4383 47.3606C91.4383 47.635 91.3405 47.5908 90.854 47.0969L90.4127 46.649L90.7744 46.2117C92.1436 44.5564 92.9943 42.5266 93.136 40.5769L93.1904 39.8278H94.5389H95.8873V40.3566ZM99.3061 40.713C99.0718 44.2491 97.5277 47.9253 95.2425 50.387L94.7203 50.9496L93.6762 49.9137L92.632 48.8777L93.1282 48.2928C94.9807 46.1094 96.0486 43.5116 96.3005 40.5769L96.3647 39.8278H97.8647H99.3648L99.3061 40.713ZM84.1784 40.1964C84.1746 40.4389 84.3938 40.8194 84.4848 40.7284C84.5136 40.6995 84.4573 40.5158 84.3597 40.32C84.1999 39.9997 84.1817 39.9874 84.1784 40.1964ZM75.4404 40.2999C75.5003 40.3599 75.5493 40.5689 75.5493 40.7645C75.5493 41.0754 75.5265 41.1141 75.3677 41.0726C75.0972 41.0018 75.1358 41.3018 75.4139 41.4308L75.6401 41.5358V40.8634C75.6401 40.291 75.6172 40.191 75.4858 40.191C75.3657 40.191 75.3557 40.2152 75.4404 40.2999ZM83.3746 40.6344C83.3072 40.6762 83.2867 40.7726 83.3245 40.871C83.3823 41.0219 83.3954 41.0179 83.4657 40.8279C83.5558 40.5846 83.5331 40.5365 83.3746 40.6344ZM76.9692 40.8719C77.0032 40.9606 77.1444 41.0081 77.3742 41.0081C77.6285 41.0081 77.7584 41.0588 77.8403 41.1897C77.9026 41.2896 78.0504 41.3713 78.1686 41.3713C78.3198 41.3713 78.3683 41.4106 78.3324 41.5041C78.3023 41.5826 78.3818 41.7163 78.527 41.8309L78.7725 42.025L78.8016 41.8343C78.8175 41.7294 78.873 41.6436 78.9249 41.6436C78.9795 41.6436 78.9958 41.7368 78.9636 41.8651C78.9331 41.9868 78.949 42.1118 78.9992 42.1428C79.0493 42.1738 79.0903 42.2818 79.0903 42.3829C79.0903 42.6123 79.305 42.5577 79.3493 42.317C79.3671 42.2213 79.4348 42.0817 79.5 42.0068C79.5652 41.9319 79.6324 41.7717 79.6495 41.6507C79.6962 41.3196 79.8382 41.3369 80.0752 41.7025L80.2883 42.0313L79.3505 42.9723C78.8346 43.4899 78.3915 43.9117 78.3656 43.9095C78.2525 43.9002 77.6343 42.9966 77.339 42.409C76.9908 41.7165 76.6936 40.7357 76.8319 40.7357C76.8786 40.7357 76.9405 40.797 76.9692 40.8719ZM91.8217 41.2048C91.8686 41.3455 92.1539 41.3691 92.1874 41.2351C92.1998 41.1851 92.1136 41.1307 91.9957 41.114C91.8487 41.0932 91.794 41.1217 91.8217 41.2048ZM75.572 41.6169C75.4334 41.6436 75.3686 41.7199 75.3706 41.8543C75.3734 42.0413 75.5592 42.37 75.6623 42.37C75.7615 42.37 75.7965 42.0179 75.7061 41.9275C75.6405 41.8619 75.6471 41.79 75.7277 41.6928C75.7917 41.6159 75.8287 41.5584 75.8101 41.5652C75.7916 41.572 75.6844 41.5952 75.572 41.6169ZM81.9214 42.1611C81.9578 42.3505 82.2446 42.4298 82.3852 42.2892C82.5051 42.1693 82.4745 42.14 82.1473 42.0614C81.9326 42.0098 81.8954 42.0262 81.9214 42.1611ZM84.2307 42.5114C84.2031 42.5834 84.1384 42.6423 84.0868 42.6423C83.9561 42.6423 83.9697 42.3392 84.1067 42.2012C84.1979 42.1095 84.2262 42.1158 84.2506 42.2338C84.2673 42.3145 84.2583 42.4395 84.2307 42.5114ZM81.1396 42.6877C81.4299 42.8626 81.9032 43.0542 82.1915 43.1138C82.761 43.2315 82.8646 43.3664 82.6484 43.7091C82.534 43.8905 82.5364 43.9134 82.6694 43.9134C82.7911 43.9134 82.801 43.9475 82.7221 44.095C82.6522 44.2256 82.6531 44.2766 82.7252 44.2766C82.7804 44.2766 82.8124 44.3684 82.7964 44.4808C82.7726 44.6488 82.7167 44.6813 82.4827 44.6635C82.255 44.6462 82.187 44.6826 82.1435 44.8451C82.0013 45.3757 82.1113 45.5476 82.5933 45.5476C82.7209 45.5476 82.8129 45.6008 82.8129 45.6746C82.8129 45.8714 82.0506 45.8925 81.3525 45.7152C80.5101 45.5013 79.7387 45.0973 78.8665 44.4133C78.6951 44.2789 78.7253 44.2361 79.6366 43.3217C80.1583 42.7982 80.5911 42.37 80.5985 42.37C80.6058 42.37 80.8494 42.513 81.1396 42.6877ZM86.8346 42.7035C86.7912 42.8166 86.8135 42.8412 86.9216 42.7997C87.0937 42.7337 87.5117 42.9106 87.5764 43.077C87.6015 43.1413 87.5535 43.2202 87.47 43.2523C87.3865 43.2843 87.3028 43.2646 87.284 43.2085C87.2653 43.1524 87.1899 43.1296 87.1163 43.1577C86.9453 43.2234 86.6262 42.9378 86.6262 42.719C86.6262 42.6269 86.6863 42.5515 86.7596 42.5515C86.847 42.5515 86.8728 42.6039 86.8346 42.7035ZM101.228 43.2325C100.889 44.2468 100.729 45.1985 100.517 47.4542C100.229 50.5129 100.09 51.211 99.5519 52.2865C99.384 52.6223 99.2467 52.915 99.2467 52.9371C99.2467 52.9591 99.6042 52.7396 100.041 52.4495C100.478 52.1592 101.317 51.6085 101.906 51.2255C105.336 48.9955 106.698 46.8968 106.681 43.868L106.676 43.0509L106.563 43.5048C106.275 44.6514 105.848 45.2734 104.082 47.1145C103.178 48.0567 102.459 48.9044 102.064 49.4931C101.313 50.6116 101.025 50.8918 101.411 50.1271C101.903 49.1519 102.016 48.6199 102.009 47.318C102.004 46.4194 101.953 45.9319 101.795 45.2752C101.681 44.8009 101.562 43.9838 101.53 43.4594L101.471 42.5061L101.228 43.2325ZM64.5349 43.4367C64.5046 43.8237 64.3941 44.5489 64.2896 45.0483C64.1851 45.5476 64.0641 46.2626 64.0207 46.6371C63.8777 47.871 64.1702 49.4303 64.7028 50.2741C64.8258 50.4689 64.9264 50.6545 64.9264 50.6866C64.9264 50.8412 64.5914 50.4291 64.06 49.6205C63.48 48.7382 63.1224 48.3222 61.3287 46.4429C60.3737 45.4424 59.757 44.5279 59.5614 43.8226C59.3535 43.0729 59.2723 43.1875 59.3363 44.1404C59.5553 47.4052 60.8084 49.1181 64.881 51.7198C65.68 52.2301 66.4054 52.7115 66.4931 52.7893C66.7777 53.0418 66.7506 52.854 66.3905 52.0761C65.9225 51.0652 65.7765 50.2869 65.515 47.4088C65.341 45.4946 65.154 44.3475 64.8675 43.4367C64.7457 43.0498 64.6335 42.7331 64.6181 42.7331C64.6027 42.7331 64.5653 43.0498 64.5349 43.4367ZM96.8412 42.8229C96.8095 42.8743 96.8459 42.8896 96.9267 42.8586C97.0839 42.7982 97.1127 42.7331 96.9822 42.7331C96.9351 42.7331 96.8718 42.7735 96.8412 42.8229ZM84.2794 43.1439C84.2798 43.2911 84.0287 43.4017 83.8499 43.3331C83.6964 43.2742 83.7012 43.2581 83.9057 43.1465C84.1539 43.0109 84.2791 43.0101 84.2794 43.1439ZM83.5392 43.3122C83.5392 43.3809 83.4784 43.4877 83.404 43.5494C83.3297 43.6111 83.2913 43.6979 83.3186 43.7421C83.3459 43.7864 83.325 43.8226 83.2722 43.8226C83.1676 43.8226 83.1381 43.346 83.2366 43.2476C83.3432 43.141 83.5392 43.1828 83.5392 43.3122ZM82.2294 43.52C82.142 43.748 82.3104 43.8581 82.4828 43.6858C82.5645 43.6041 82.6313 43.4993 82.6313 43.453C82.6313 43.3055 82.2899 43.3624 82.2294 43.52ZM86.6235 43.6989C86.6965 43.7718 86.3408 44.0042 86.1559 44.0042C85.8976 44.0042 85.6275 44.2929 85.6275 44.5691C85.6275 44.8802 85.8045 44.8973 86.1765 44.6222C86.4628 44.4106 86.703 44.4905 86.5985 44.7627C86.5226 44.9606 85.8086 45.3535 85.0725 45.6025C84.2796 45.8708 84.2804 45.8708 84.1748 45.593C84.0827 45.3509 83.9126 45.3014 83.7456 45.4684C83.5707 45.6432 83.1761 45.4844 83.1761 45.2392C83.1761 44.9919 83.3033 44.8701 83.6475 44.788C83.8915 44.7298 84.3409 44.871 84.4699 45.0464C84.5135 45.1057 84.5694 45.0902 84.6251 45.0033C84.692 44.8994 84.6486 44.8346 84.4401 44.7269C84.167 44.5856 84.1683 44.4581 84.4427 44.4581C84.5235 44.4581 84.6594 44.5762 84.7446 44.7204C84.8298 44.8648 85.002 45.0085 85.1273 45.0399C85.2526 45.0714 85.3551 45.1372 85.3551 45.1862C85.3551 45.2352 85.4368 45.2752 85.5367 45.2752C85.7846 45.2752 85.7593 45.1795 85.4421 44.9163C85.1491 44.6733 85.1018 44.5489 85.3025 44.5489C85.4421 44.5489 85.5866 44.0676 85.4927 43.9156C85.4605 43.8636 85.5176 43.8226 85.6221 43.8226C85.7451 43.8226 85.8091 43.7637 85.8091 43.6506C85.8091 43.4955 85.8465 43.4871 86.1923 43.5648C86.4032 43.6122 86.5972 43.6725 86.6235 43.6989ZM97.9414 44.4163C97.8538 44.6445 97.8796 44.7034 97.9866 44.5194C98.0396 44.4283 98.0639 44.3346 98.0405 44.3112C98.0171 44.2878 97.9725 44.3351 97.9414 44.4163ZM80.1082 45.7148C80.4223 45.8637 80.8624 46.0342 81.0863 46.0935L81.4935 46.2016L81.1544 46.4736C80.9679 46.6231 80.8154 46.8173 80.8154 46.905C80.8154 46.9927 80.7142 47.1738 80.5905 47.3072L80.3656 47.5498L80.5874 47.7426C80.7094 47.8488 80.7878 47.9703 80.7616 48.0127C80.7353 48.0551 80.7489 48.0897 80.7918 48.0897C80.8347 48.0897 80.9198 48.2282 80.981 48.3975C81.1097 48.7531 81.3343 48.8496 82.5178 49.0566C82.7005 49.0886 82.8129 49.1615 82.8129 49.248C82.8129 49.3665 82.7061 49.3793 82.1092 49.3322C80.2882 49.1887 78.3733 48.398 76.8463 47.1591L76.2696 46.6913L77.3268 45.6313L78.3841 44.5714L78.9606 45.0078C79.2777 45.2477 79.7941 45.566 80.1082 45.7148ZM90.0908 44.7305C90.0908 44.8553 90.1114 44.9065 90.1365 44.844C90.1618 44.7816 90.1618 44.6795 90.1365 44.617C90.1114 44.5546 90.0908 44.6057 90.0908 44.7305ZM86.2631 44.7359C86.2631 44.7887 86.3039 44.8068 86.3539 44.7759C86.4038 44.745 86.4447 44.7018 86.4447 44.6797C86.4447 44.6577 86.4038 44.6397 86.3539 44.6397C86.3039 44.6397 86.2631 44.683 86.2631 44.7359ZM97.1584 45.2298C97.1584 45.3047 97.1992 45.366 97.2492 45.366C97.2991 45.366 97.34 45.3047 97.34 45.2298C97.34 45.1549 97.2991 45.0937 97.2492 45.0937C97.1992 45.0937 97.1584 45.1549 97.1584 45.2298ZM88.0336 45.6454C88.7832 45.7952 89.0316 45.8754 89.0084 45.9599C88.9632 46.1248 88.1255 46.032 87.5796 45.8016C87.28 45.6752 86.964 45.5474 86.8775 45.5177C86.7854 45.4861 86.7414 45.4083 86.7712 45.3304C86.8146 45.2173 86.8866 45.2256 87.2464 45.3849C87.4796 45.4882 87.8338 45.6054 88.0336 45.6454ZM84.311 45.366C84.3419 45.416 84.3851 45.4568 84.4071 45.4568C84.4292 45.4568 84.4472 45.416 84.4472 45.366C84.4472 45.3161 84.4039 45.2752 84.351 45.2752C84.2982 45.2752 84.2801 45.3161 84.311 45.366ZM68.4674 46.2517C68.4674 46.3016 68.5287 46.3933 68.6036 46.4555C68.6796 46.5185 68.7397 46.5284 68.7397 46.4778C68.7397 46.4278 68.6785 46.3361 68.6036 46.2739C68.5276 46.2109 68.4674 46.201 68.4674 46.2517ZM93.1634 46.3647C93.1634 46.4147 93.2043 46.4555 93.2542 46.4555C93.3042 46.4555 93.345 46.4147 93.345 46.3647C93.345 46.3148 93.3042 46.2739 93.2542 46.2739C93.2043 46.2739 93.1634 46.3148 93.1634 46.3647ZM92.9819 46.7172C92.9819 46.7671 93.0227 46.8332 93.0726 46.8641C93.1226 46.8949 93.1634 46.8793 93.1634 46.8294C93.1634 46.7795 93.1226 46.7134 93.0726 46.6825C93.0227 46.6516 92.9819 46.6672 92.9819 46.7172ZM69.3753 47.1058C69.3753 47.2783 69.7501 47.8209 69.8335 47.7693C69.9311 47.7091 69.6459 47.1153 69.4888 47.0518C69.4264 47.0266 69.3753 47.0509 69.3753 47.1058ZM90.4886 47.3671C90.7623 47.6473 90.8179 47.7519 90.7243 47.8097C90.63 47.868 90.6273 47.9012 90.7124 47.9538C90.7733 47.9914 90.8522 47.9752 90.8877 47.9176C90.9581 47.8037 91.2799 48.0908 91.2459 48.2373C91.2357 48.2809 91.2739 48.4291 91.3307 48.5664C91.4128 48.7653 91.4943 48.8169 91.7312 48.8201L92.0285 48.8243L91.5399 49.2694C90.9335 49.8216 89.9856 50.4933 89.9856 50.3707C89.9856 50.3204 90.0265 50.2542 90.0764 50.2233C90.2238 50.1322 90.1802 49.7402 90.0122 49.6462C89.8761 49.5701 89.9037 49.5117 90.2392 49.1661C90.4493 48.9496 90.6212 48.723 90.6212 48.6624C90.6212 48.6018 90.3987 48.3767 90.1269 48.1621C89.8433 47.9383 89.6304 47.6971 89.6275 47.5962C89.6228 47.4328 89.9467 47.0003 90.0738 47.0003C90.1049 47.0003 90.2916 47.1653 90.4886 47.3671ZM99.4174 47.9417C98.2507 49.4219 97.8244 50.2228 97.1155 52.2661C96.2886 54.6498 95.8763 55.4404 95.0071 56.3095C94.736 56.5806 94.6431 56.7201 94.7556 56.6871C95.2429 56.5443 95.7865 56.4293 97.1599 56.1786C99.5723 55.7383 100.346 55.4439 101.656 54.4683C103.369 53.1933 104.724 51.3068 105.097 49.6786C105.149 49.45 105.113 49.4794 104.873 49.8601C104.497 50.4558 103.684 51.289 103.059 51.7183C102.784 51.9073 101.804 52.4398 100.881 52.9016C99.1954 53.7453 98.5745 54.1205 97.567 54.9038C96.6344 55.6289 96.5392 55.5921 97.2955 54.799C98.0672 53.9898 98.5727 53.1512 98.8221 52.2661C98.8995 51.9914 99.086 51.049 99.2364 50.1719C99.3868 49.2948 99.6122 48.2954 99.7372 47.9509C99.8623 47.6065 99.9562 47.3178 99.9461 47.3095C99.9359 47.301 99.698 47.5856 99.4174 47.9417ZM66.1537 47.5223C66.384 48.0728 66.5859 48.9116 66.8299 50.3305C66.9829 51.2204 67.1737 52.1526 67.2541 52.4023C67.5187 53.2244 68.0144 54.0489 68.6751 54.7659C69.4002 55.5528 69.255 55.5269 68.1496 54.6721C67.2536 53.9793 66.6132 53.6047 65.0416 52.8544C63.0192 51.8888 61.9946 51.1169 61.2487 49.9963C60.928 49.5147 60.9184 49.5082 60.9796 49.8147C61.2908 51.3727 62.9711 53.5513 64.8104 54.7816C65.7503 55.4103 66.5392 55.7216 67.8376 55.9765C68.3588 56.0788 69.2959 56.2628 69.9201 56.3854C70.5443 56.508 71.1367 56.6382 71.2366 56.6746C71.351 56.7163 71.2635 56.5766 70.9996 56.2965C70.1415 55.3856 69.7371 54.6111 68.9935 52.4541C68.2568 50.3174 67.98 49.7786 66.809 48.2032C66.2033 47.3884 66.0165 47.1943 66.1537 47.5223ZM77.91 48.4093C79.106 49.1296 80.6333 49.6056 82.2908 49.7746L82.8129 49.8278V51.1923V52.5569L82.1546 52.497C79.1843 52.2271 76.5953 51.1404 74.4608 49.2676L74.0532 48.9099L74.2565 48.7067C74.4307 48.5324 74.4598 48.5257 74.4598 48.6597C74.4598 48.7911 74.551 48.8161 75.0318 48.8161C75.3684 48.8161 75.6505 48.7694 75.7172 48.7026C75.7796 48.6402 76.084 48.5687 76.3936 48.5437C76.901 48.5027 76.9596 48.477 76.9871 48.2836C77.0038 48.1655 76.9731 48.0245 76.919 47.9703C76.7387 47.7901 76.8174 47.7022 77.0247 47.8518C77.1371 47.9329 77.5355 48.1837 77.91 48.4093ZM73.7394 48.0929C73.9353 48.1978 73.9708 48.4077 73.8095 48.5074C73.7498 48.5443 73.6317 48.4832 73.5371 48.3665C73.2598 48.024 73.3593 47.8895 73.7394 48.0929ZM83.8052 49.0104C83.9835 49.0675 84.1895 49.1309 84.263 49.1515C84.5312 49.2267 84.1457 49.358 83.6527 49.3594C83.2505 49.3606 83.1761 49.3348 83.1761 49.1944C83.1761 48.8842 83.2984 48.8485 83.8052 49.0104ZM75.5846 50.6625C77.5156 51.9466 79.7739 52.7294 81.962 52.8731L82.8129 52.929V54.4375V55.946L81.7755 55.8795C78.4286 55.6651 74.9723 54.2336 72.3853 51.9904L71.6275 51.3333L72.6956 50.2623L73.7638 49.1915L74.306 49.682C74.6042 49.9518 75.1795 50.3931 75.5846 50.6625ZM94.0236 51.6365C93.5875 52.0874 92.2328 53.1117 91.4837 53.5568C89.8487 54.5285 87.9654 55.2641 86.1979 55.6215C85.0513 55.8534 83.262 55.9908 83.2085 55.8512C83.1879 55.7976 83.1824 55.1223 83.1963 54.3504L83.2215 52.947L84.0487 52.8834C84.8192 52.8241 86.3865 52.5443 86.7327 52.4043C86.8285 52.3655 86.9547 52.413 87.0746 52.5328C87.414 52.8722 87.9863 52.6391 89.0759 51.7181C89.4993 51.3601 90.1939 50.8265 90.6194 50.5324C91.0448 50.2384 91.5972 49.816 91.8469 49.5939L92.3009 49.1899L93.3427 50.2268L94.3844 51.2636L94.0236 51.6365ZM84.6742 49.724C84.705 49.7739 84.8109 49.8147 84.9093 49.8147C85.0078 49.8147 85.1155 49.8863 85.1486 49.9736C85.1817 50.061 85.2648 50.1892 85.3332 50.2583C85.4184 50.3445 85.4395 50.4923 85.3998 50.7268C85.3307 51.136 85.5472 51.6305 85.7956 51.6305C85.8855 51.6305 86.0531 51.7306 86.1679 51.8529L86.3768 52.0752L86.1157 52.1343C85.972 52.1669 85.7115 52.2277 85.5367 52.2694C85.025 52.3916 83.4456 52.5568 83.3051 52.5029C83.2018 52.4633 83.1761 52.1912 83.1761 51.1406V49.8278L83.6981 49.7703C83.9853 49.7387 84.2815 49.6996 84.3564 49.6835C84.603 49.6305 84.6175 49.6323 84.6742 49.724ZM80.4068 50.0871C80.4377 50.1371 80.5013 50.1779 80.5484 50.1779C80.5954 50.1779 80.6338 50.1371 80.6338 50.0871C80.6338 50.0372 80.5701 49.9963 80.4923 49.9963C80.4145 49.9963 80.376 50.0372 80.4068 50.0871ZM81.7233 51.2674C81.7233 51.3173 81.7667 51.3582 81.8195 51.3582C81.8723 51.3582 81.8904 51.3173 81.8595 51.2674C81.8287 51.2175 81.7854 51.1766 81.7634 51.1766C81.7413 51.1766 81.7233 51.2175 81.7233 51.2674ZM73.2795 52.2175C73.2795 52.2906 73.3612 52.3942 73.4611 52.4477C73.6005 52.5223 73.6426 52.5167 73.6426 52.4236C73.6426 52.2901 73.4664 52.0845 73.3521 52.0845C73.3122 52.0845 73.2795 52.1443 73.2795 52.2175ZM96.0689 52.6421C95.3687 53.1684 94.6845 53.7745 93.1484 55.2296C91.6234 56.674 91.0305 57.0627 89.7587 57.4521C88.4111 57.8647 88.423 57.8571 89.0096 57.9261C89.2934 57.9594 90.1502 58.148 90.9133 58.3451C93.3793 58.982 94.7394 59.1544 95.9781 58.987C97.5326 58.777 99.0082 58.0793 100.167 57.0064C100.665 56.5459 101.517 55.4731 101.517 55.3072C101.517 55.2697 101.34 55.4014 101.125 55.6C100.011 56.6264 98.8153 56.9772 95.6146 57.2158C94.5412 57.2959 93.2542 57.4405 92.7549 57.5372C91.7307 57.7355 91.5881 57.7478 91.6597 57.6318C91.6875 57.5869 91.9248 57.5002 92.1871 57.4392C93.6723 57.0938 94.5341 56.2233 95.7359 53.8549C96.0147 53.3056 96.3302 52.7235 96.437 52.5611C96.544 52.3988 96.6173 52.2663 96.5998 52.2664C96.5825 52.2667 96.3435 52.4358 96.0689 52.6421ZM69.6826 52.7032C69.8028 52.8938 70.0738 53.3943 70.2848 53.8154C71.4865 56.2143 72.1735 56.9309 73.7334 57.4122C74.1579 57.5431 74.4533 57.6682 74.3897 57.6901C74.3261 57.712 73.8359 57.6448 73.3002 57.5406C72.7645 57.4366 71.4681 57.289 70.4194 57.2127C67.3818 56.9916 66.1816 56.6522 64.9813 55.6746C64.6881 55.4357 64.481 55.2964 64.5212 55.3647C65.4884 57.0141 67.3765 58.4084 69.2555 58.861C70.0092 59.0425 71.6737 59.0631 72.6687 58.9033C73.0568 58.8409 74.177 58.5885 75.1577 58.3425C76.1385 58.0964 77.0637 57.8951 77.2137 57.8951C77.6235 57.8951 77.4388 57.7905 76.7057 57.6074C76.3443 57.5172 75.666 57.2548 75.1981 57.0245C74.3246 56.5941 74.2186 56.5068 72.0083 54.3963C71.1478 53.5745 69.6713 52.3569 69.5355 52.3569C69.4961 52.3569 69.5623 52.5128 69.6826 52.7032ZM79.9983 57.7711C78.5815 57.9288 77.6412 58.2142 75.4272 59.1585C73.6 59.9378 73.1685 60.066 72.1423 60.1347C71.1109 60.2037 70.0442 60.006 69.1285 59.5762C68.5748 59.3163 68.4902 59.2964 68.5838 59.4478C68.7478 59.7136 69.6207 60.3761 70.2877 60.741C71.669 61.4966 73.0108 61.7385 74.4424 61.49C75.9426 61.2296 76.6877 60.8685 78.997 59.283C79.8567 58.6927 80.7271 58.349 81.3623 58.349C82.0721 58.349 82.0337 58.4472 81.148 58.8954C79.7671 59.5943 77.6415 61.1263 76.8389 62.0011L76.6302 62.2285L77.0981 62.649L77.566 63.0696L78.8363 61.8459C80.2574 60.4768 81.4615 59.5255 82.3927 59.0362L83.0167 58.7084L83.7092 59.0802C84.7291 59.6279 85.604 60.3263 87.0981 61.7857L88.4326 63.089L88.8913 62.7021C89.1436 62.4894 89.3501 62.2677 89.3501 62.2095C89.3501 62.0929 88.5425 61.3614 87.625 60.6469C86.7554 59.9697 85.5752 59.2221 84.7321 58.8144C84.0085 58.4645 83.9966 58.4535 84.2729 58.3928C85.0965 58.2119 86.1056 58.602 87.6618 59.7028C89.3048 60.865 90.6376 61.4219 92.1301 61.5695C93.7664 61.7315 95.7666 61.0163 97.109 59.7895C97.6648 59.2816 97.7157 59.1403 97.2367 59.435C96.7071 59.761 95.5436 60.0777 94.6686 60.134C93.4242 60.2142 92.6465 60.0303 90.6424 59.1817C87.9601 58.0462 87.013 57.7862 85.5367 57.7802C84.9682 57.7779 84.2593 57.8415 83.7808 57.9378C83.0351 58.088 82.929 58.0893 82.2827 57.9564C81.5185 57.7992 80.4931 57.716 79.9983 57.7711Z" fill="#BBC4CD"/>
<path d="M51.5223 67.5456H53.9794V74.116C53.9794 74.8753 53.7986 75.5368 53.4372 76.1005C53.0758 76.6609 52.5718 77.0953 51.9252 77.4037C51.2786 77.7087 50.5276 77.8613 49.6721 77.8613C48.8066 77.8613 48.0506 77.7087 47.404 77.4037C46.7574 77.0953 46.2551 76.6609 45.897 76.1005C45.5389 75.5368 45.3598 74.8753 45.3598 74.116V67.5456H47.8218V73.9021C47.8218 74.2536 47.8981 74.567 48.0506 74.8422C48.2065 75.1174 48.4236 75.3329 48.7022 75.4888C48.9807 75.6446 49.304 75.7225 49.6721 75.7225C50.0401 75.7225 50.3618 75.6446 50.637 75.4888C50.9155 75.3329 51.1327 75.1174 51.2885 74.8422C51.4444 74.567 51.5223 74.2536 51.5223 73.9021V67.5456ZM65.5924 67.5456V77.7319H63.5034L59.4498 71.8529H59.3851V77.7319H56.9231V67.5456H59.0419L63.0508 73.4147H63.1353V67.5456H65.5924Z" fill="#BBC4CD"/>
<path fill-rule="evenodd" clip-rule="evenodd" d="M81.9111 67.4163C81.0208 67.558 80.3 67.9196 79.7724 68.4888C79.2613 69.0404 79.058 69.6125 79.0591 70.4962C79.0602 71.4277 79.268 71.9848 79.7964 72.4728C80.3088 72.9458 80.8347 73.1801 82.2841 73.5808C83.8442 74.0122 84.2913 74.2335 84.4256 74.6411C84.5786 75.1056 84.2957 75.604 83.7789 75.7804C83.4182 75.9035 82.5179 75.906 82.0405 75.7852C81.5775 75.668 80.6863 75.2256 80.2714 74.907C80.0052 74.7027 79.9338 74.6724 79.8734 74.7385C79.833 74.7828 79.5351 75.1388 79.2114 75.5296C78.7406 76.0979 78.6367 76.2569 78.6925 76.3242C78.8385 76.5004 79.6848 77.0426 80.1679 77.2694C80.445 77.3995 80.9396 77.5801 81.2669 77.6708C81.8053 77.8199 81.9596 77.8358 82.887 77.8374C83.6872 77.8388 83.997 77.8157 84.2996 77.732C85.4406 77.4164 86.2425 76.7111 86.5366 75.7645C86.896 74.6075 86.6507 73.4315 85.908 72.7515C85.3592 72.249 84.5981 71.9192 83.0099 71.4954C81.6606 71.1354 81.2892 70.8764 81.2892 70.2949C81.2892 69.756 81.6689 69.4392 82.3921 69.3747C83.078 69.3136 84.0429 69.6259 84.9973 70.218L85.2385 70.3677L85.7811 69.5742C86.0796 69.1378 86.3319 68.7497 86.3419 68.7117C86.3959 68.5051 85.0308 67.7885 84.1709 67.5722C83.5235 67.4094 82.4287 67.3338 81.9111 67.4163ZM93.2877 67.3971C92.0493 67.6343 91.2221 68.0416 90.4319 68.8028C89.7408 69.4688 89.2583 70.2946 88.9989 71.2553C88.8115 71.9495 88.8115 73.3397 88.9989 74.0339C89.5012 75.8942 90.8579 77.2534 92.715 77.7566C93.4082 77.9444 94.7834 77.9467 95.5312 77.7614C96.4474 77.5343 97.1319 77.1554 97.9292 76.4341L98.2597 76.1352L97.8888 75.7187C97.2184 74.9661 96.8512 74.6338 96.762 74.6992C96.7174 74.7319 96.5223 74.8869 96.3285 75.0435C95.602 75.6305 94.9387 75.8455 93.9758 75.8061C93.459 75.785 93.3227 75.7556 92.9675 75.5887C92.4543 75.3476 91.8624 74.7906 91.6048 74.3064C90.5846 72.389 91.5337 69.9487 93.4711 69.5072C93.9805 69.3911 94.2846 69.39 94.8124 69.502C95.3335 69.6126 95.892 69.8881 96.3585 70.2647C96.5601 70.4275 96.7357 70.5607 96.7486 70.5607C96.7615 70.5607 97.0928 70.1898 97.4847 69.7365L98.1973 68.9122L97.9583 68.7033C97.3184 68.1438 96.5795 67.746 95.79 67.5358C95.4217 67.4377 95.0866 67.4028 94.373 67.3878C93.859 67.377 93.3707 67.3812 93.2877 67.3971ZM103.699 67.4637C103.677 67.4995 101.183 73.3598 99.5076 77.312L99.3214 77.7512L100.476 77.7348L101.63 77.7184L102.088 76.601L102.545 75.4835H104.71H106.875L107.332 76.6157L107.788 77.7479L108.949 77.7482C109.588 77.7484 110.11 77.7258 110.11 77.698C110.11 77.6701 109.135 75.3529 107.945 72.5487L105.779 67.45L104.753 67.4335C104.189 67.4244 103.715 67.438 103.699 67.4637ZM68.6274 72.6446V77.7486H72.5164C74.8971 77.7486 76.4054 77.7266 76.4054 77.6919C76.4054 77.6608 76.3104 77.2242 76.1944 76.7218C76.0783 76.2193 75.9833 75.7966 75.9833 75.7824C75.9833 75.7682 74.837 75.7495 73.4359 75.7409L70.8885 75.7251V74.6681V73.611L73.2249 73.5952L75.5613 73.5794V72.5835V71.5876H73.2098H70.8583V70.5607V69.5339H73.4141H75.97L76.1314 68.6731C76.2202 68.1997 76.3075 67.7512 76.3255 67.6765L76.3582 67.5406H72.4928H68.6274V72.6446ZM111.858 72.6446V77.7486H112.974H114.089V76.2148V74.681L115.461 74.6526C116.644 74.628 116.895 74.6058 117.284 74.4909C118.567 74.1123 119.414 73.3198 119.772 72.1614C119.971 71.519 119.954 70.5187 119.734 69.8727C119.341 68.7217 118.481 67.9663 117.218 67.6629C116.755 67.5516 116.508 67.5414 114.285 67.541L111.858 67.5406V72.6446ZM116.292 69.5998C116.991 69.7292 117.45 70.1125 117.586 70.6793C117.776 71.4754 117.446 72.1669 116.712 72.5054C116.437 72.6326 116.31 72.6463 115.25 72.6643L114.089 72.684V71.1089V69.5339H115.013C115.521 69.5339 116.096 69.5635 116.292 69.5998ZM105.394 71.8443L106.055 73.46H104.705H103.355L103.45 73.2335C103.535 73.0322 104.588 70.4683 104.667 70.2712C104.684 70.2283 104.706 70.2011 104.716 70.2108C104.725 70.2205 105.031 70.9556 105.394 71.8443Z" fill="#BBC4CD"/>
</svg>
